<?xml version="1.0" standalone="no"?>
<!DOCTYPE svg PUBLIC "-//W3C//DTD SVG 20010904//EN"
 "http://www.w3.org/TR/2001/REC-SVG-20010904/DTD/svg10.dtd">
<svg version="1.0" xmlns="http://www.w3.org/2000/svg"
 width="464.000000pt" height="537.000000pt" viewBox="0 0 464.000000 537.000000"
 preserveAspectRatio="xMidYMid meet">

<g transform="translate(0.000000,537.000000) scale(0.100000,-0.100000)"
fill="#000000" stroke="none">
<path d="M453 5354 c-73 -26 -193 -153 -193 -204 0 -8 75 -101 168 -206 92
-105 376 -428 632 -719 256 -291 585 -666 733 -833 147 -167 267 -308 267
-312 0 -4 -181 -211 -402 -461 -585 -662 -907 -1027 -1117 -1266 -108 -123
-197 -215 -213 -221 -17 -7 -35 -26 -45 -48 -10 -21 -30 -50 -46 -65 -18 -18
-27 -38 -27 -59 0 -18 -10 -45 -21 -62 -12 -16 -24 -50 -27 -74 -2 -24 -7 -44
-11 -44 -14 0 -115 -90 -133 -119 -27 -42 -16 -69 38 -92 24 -11 44 -26 44
-34 0 -7 11 -26 24 -42 21 -25 22 -30 9 -42 -10 -9 -13 -24 -9 -42 3 -17 1
-29 -4 -29 -6 0 -15 -11 -22 -25 -12 -27 2 -55 28 -55 23 0 46 32 40 56 -5 17
-1 24 14 29 19 6 25 22 21 53 -1 7 6 15 16 19 10 3 28 15 41 27 16 14 34 20
58 17 49 -4 84 21 84 60 0 35 -17 71 -72 152 -37 54 -39 60 -28 92 6 19 9 39
6 44 -4 5 5 21 19 35 14 14 25 37 25 53 1 16 13 42 28 60 l28 32 26 -33 c24
-30 129 -108 160 -118 8 -3 5 -12 -10 -28 -14 -15 -22 -37 -22 -57 0 -19 -6
-46 -14 -61 -15 -31 -19 -207 -4 -235 6 -13 1 -28 -22 -62 -45 -65 -73 -133
-66 -160 6 -24 49 -45 94 -45 14 0 32 -10 44 -25 11 -14 26 -25 35 -25 11 0
13 -7 8 -30 -4 -19 -2 -37 6 -46 9 -11 9 -20 0 -40 -21 -47 18 -83 53 -48 19
18 20 28 6 55 -8 15 -7 23 5 35 18 18 19 36 3 52 -9 9 -5 17 15 36 15 14 27
32 27 40 0 8 18 20 42 28 52 16 71 47 56 89 -7 19 -39 50 -94 90 -74 54 -84
65 -84 93 0 17 -4 37 -9 45 -6 10 -4 25 5 44 9 15 13 34 10 40 -2 7 -5 4 -5
-5 -2 -42 -78 -78 -97 -47 -8 14 16 31 34 24 7 -3 10 0 7 5 -8 13 -42 13 -51
-1 -4 -8 -9 -7 -15 2 -12 19 -11 42 1 75 l11 27 22 -22 c13 -11 32 -21 43 -21
11 0 26 -6 33 -13 11 -10 13 -9 8 5 -3 9 1 32 10 49 16 31 15 35 -11 85 l-28
53 364 413 c200 227 545 620 768 873 499 568 541 615 551 615 8 0 162 -173
814 -916 165 -187 426 -484 580 -659 154 -174 281 -321 283 -325 2 -4 -9 -25
-23 -45 -28 -42 -32 -72 -11 -100 10 -14 11 -25 3 -43 -8 -17 -7 -32 2 -57 6
-18 9 -46 6 -62 -5 -27 -5 -27 6 -5 8 14 21 22 38 22 14 0 36 3 48 6 18 5 22
1 25 -23 2 -15 0 -40 -5 -56 -15 -46 -83 -49 -105 -4 -10 20 -10 20 -9 -9 1
-21 6 -30 15 -27 15 6 16 -13 1 -23 -17 -10 -69 -96 -68 -113 0 -9 11 6 24 33
44 88 80 113 71 49 l-6 -38 11 35 c10 32 24 49 41 50 7 0 34 -79 41 -120 4
-25 4 -25 6 2 0 15 -4 39 -9 54 -18 48 -3 37 34 -24 67 -111 45 -138 -109
-128 -163 11 -206 22 -229 58 -17 28 8 63 88 122 91 67 102 85 15 24 -76 -53
-119 -101 -119 -133 0 -27 46 -65 79 -65 12 0 24 -8 28 -17 3 -10 14 -30 24
-44 11 -15 16 -35 12 -48 -3 -13 1 -29 13 -42 13 -15 15 -22 6 -31 -18 -18
-15 -43 8 -63 35 -32 66 17 40 65 -7 13 -5 21 6 31 10 8 13 21 9 41 -4 18 -2
28 5 28 6 0 23 12 38 27 17 18 38 28 59 29 40 2 83 29 83 52 0 20 -49 118 -80
162 -18 26 -20 36 -12 58 14 36 9 219 -6 234 -7 7 -12 29 -12 49 0 21 -8 47
-19 60 l-18 23 56 36 c31 20 73 56 94 79 l39 43 29 -33 c16 -19 28 -46 29 -61
0 -16 10 -38 22 -50 13 -13 21 -32 20 -45 -2 -12 2 -32 8 -43 10 -19 5 -33
-44 -105 -66 -99 -74 -126 -52 -160 14 -21 24 -25 64 -25 39 0 53 -5 72 -25
13 -14 32 -25 42 -25 14 0 17 -5 12 -24 -4 -19 0 -28 19 -40 17 -12 23 -23 20
-40 -5 -24 19 -56 42 -56 23 0 38 36 25 60 -6 11 -15 20 -21 20 -6 0 -8 11 -4
29 4 20 1 34 -10 45 -15 15 -15 18 9 47 14 17 26 36 26 42 0 7 18 19 39 28 82
35 69 90 -39 172 -58 44 -64 53 -65 86 -1 21 -11 51 -23 68 -12 17 -22 41 -22
53 0 30 -26 77 -50 90 -11 6 -20 19 -20 28 0 22 -27 62 -42 62 -6 0 -4 -8 5
-17 25 -29 23 -46 -10 -79 -35 -35 -53 -29 -53 18 0 33 19 78 34 78 7 0 8 3 1
8 -6 4 -60 63 -121 132 -60 69 -180 204 -265 300 -163 184 -1291 1463 -1317
1492 -18 22 -33 3 247 319 216 246 449 511 1190 1354 193 219 351 404 351 411
0 25 -84 136 -124 163 -45 31 -149 66 -165 56 -10 -6 -212 -233 -1066 -1200
-615 -696 -698 -790 -704 -792 -5 -1 -970 1087 -1566 1767 -220 252 -212 246
-302 214z m68 -30 c15 -18 1 -49 -21 -49 -14 0 -32 49 -22 59 10 11 29 6 43
-10z m38 2 c6 -7 8 -22 4 -32 -6 -16 -4 -17 9 -6 13 10 18 8 32 -12 30 -46 27
-53 -97 -209 -15 -19 -36 -51 -46 -72 l-17 -36 -68 77 c-67 76 -72 93 -28 97
14 1 18 5 12 12 -13 16 24 45 56 45 21 0 25 -4 22 -22 -2 -12 -14 -28 -28 -35
-23 -12 -23 -13 -4 -13 12 0 27 7 34 15 7 8 17 12 23 8 6 -4 8 0 4 10 -5 14 0
17 24 17 37 0 58 35 40 68 -14 27 -14 32 3 32 11 0 12 8 6 35 -8 36 -1 45 19
21z m3543 -16 c-5 -32 -19 -40 -28 -15 -6 15 11 45 25 45 4 0 6 -13 3 -30z
m-3630 -52 c-12 -47 -87 -73 -128 -44 -24 18 -14 29 17 18 50 -19 103 26 86
72 -3 8 -3 17 1 21 10 10 30 -45 24 -67z m3687 42 c-12 -32 -36 -40 -45 -15
-10 25 4 45 30 45 23 0 24 -2 15 -30z m33 -14 c-3 -28 1 -37 23 -52 22 -14 32
-16 56 -7 33 13 49 -1 20 -16 -28 -15 -73 -13 -98 4 -26 18 -37 59 -23 85 16
30 26 24 22 -14z m-3752 0 c0 -19 -36 -48 -56 -44 -29 5 -26 24 3 23 22 0 29
5 31 23 3 23 22 21 22 -2z m3775 14 c-10 -16 15 -40 41 -40 13 0 24 -5 24 -11
0 -16 -62 -6 -73 12 -10 16 -4 49 8 49 4 0 3 -5 0 -10z m-135 -24 c6 -8 19
-12 27 -9 13 5 15 3 8 -13 -5 -10 -9 -33 -9 -51 0 -32 -15 -37 -17 -5 0 11 -2
12 -6 4 -9 -22 25 -62 53 -62 16 0 34 -10 46 -25 21 -26 43 -31 68 -15 11 8 9
9 -11 5 -26 -6 -59 14 -59 36 0 5 9 0 20 -11 22 -22 36 -25 45 -11 3 5 -5 11
-17 13 -17 2 -24 11 -26 31 -3 24 0 27 21 25 27 -4 63 -35 53 -46 -4 -3 7 -11
25 -17 l32 -11 -68 -77 c-37 -42 -69 -77 -70 -77 -2 0 -13 19 -24 43 -11 23
-44 69 -71 101 -28 32 -60 76 -71 98 -19 37 -19 39 -2 63 21 28 36 31 53 11z
m-3556 -74 c-14 -21 -54 -28 -64 -11 -5 7 1 24 13 41 l21 28 20 -20 c16 -16
18 -24 10 -38z m3645 17 c12 -27 12 -33 0 -40 -19 -12 -33 -11 -47 3 -22 22
-7 68 23 68 5 0 16 -14 24 -31z m-3524 -16 c-8 -32 -34 -71 -91 -136 -24 -26
-51 -65 -61 -87 -17 -38 -33 -52 -33 -30 0 25 31 80 80 140 29 36 62 82 74
102 25 44 41 50 31 11z m3374 -4 c7 -17 41 -65 74 -106 57 -71 91 -138 80
-157 -3 -5 -12 7 -20 25 -8 19 -40 66 -73 105 -61 75 -90 123 -90 149 0 25 14
17 29 -16z m-3669 1 c12 -7 12 -12 -4 -29 -11 -12 -15 -21 -10 -21 5 0 2 -5
-6 -10 -18 -12 -21 -12 -38 -1 -12 7 -11 14 2 40 17 32 30 37 56 21z m329 -12
c14 -19 5 -23 -18 -9 -7 5 -10 14 -6 21 4 6 8 10 9 8 1 -2 8 -11 15 -20z
m3661 -19 c0 -11 5 -19 11 -19 5 0 7 -4 4 -10 -3 -5 -16 -10 -28 -10 -18 0
-19 2 -7 10 12 8 13 10 1 10 -8 0 -23 8 -33 17 -18 16 -18 17 4 29 27 14 48 2
48 -27z m-350 10 c0 -5 -9 -9 -19 -9 -16 0 -18 -4 -12 -27 5 -17 14 -27 22
-24 39 10 44 6 41 -33 -2 -28 0 -37 10 -33 7 2 12 10 11 16 -2 6 2 11 7 11 6
0 10 -9 10 -20 0 -11 -5 -20 -12 -20 -6 0 -8 -3 -5 -6 4 -4 13 -1 21 5 18 15
34 -5 17 -22 -16 -16 -14 -40 4 -33 8 3 15 1 15 -4 0 -17 -31 -11 -63 12 l-30
22 22 -31 c18 -24 28 -29 49 -25 15 3 31 12 36 20 7 12 10 12 16 1 5 -8 2 -17
-7 -24 -21 -16 -9 -50 13 -41 15 6 15 4 3 -11 -7 -10 -24 -29 -37 -42 -30 -30
-55 -19 -60 25 -4 31 -18 54 -34 54 -5 0 -2 -7 6 -16 18 -18 19 -24 6 -44 -6
-10 -10 -11 -10 -2 0 6 -10 22 -22 34 -14 14 -18 23 -10 26 7 2 10 8 7 12 -3
5 -13 6 -22 3 -12 -5 -15 -2 -10 10 4 10 2 14 -6 11 -7 -2 -18 5 -25 16 -8 13
-8 20 -1 20 5 0 8 4 5 9 -9 14 36 21 53 8 9 -6 8 -2 -3 11 -24 28 -30 28 -57
0 l-22 -23 6 22 c3 14 1 21 -6 20 -6 -1 -13 8 -15 21 -3 17 2 25 17 29 11 3
17 11 15 18 -3 7 -1 16 5 20 6 3 11 -2 11 -12 0 -24 19 -43 41 -43 10 0 19
-11 23 -30 3 -20 11 -30 23 -30 17 1 17 1 1 11 -21 11 -24 49 -5 49 9 0 9 2
-1 9 -7 4 -24 6 -37 4 -35 -7 -46 45 -16 81 13 16 31 13 31 -5z m184 -21 c-3
-4 -16 -8 -29 -8 -13 0 -26 4 -29 8 -2 4 10 8 29 8 19 0 31 -4 29 -8z m-3454
-18 c5 -8 7 -17 4 -21 -2 -4 5 -9 15 -12 13 -3 18 -12 16 -23 -2 -11 -4 -23
-4 -27 -1 -5 -6 -5 -12 -1 -8 4 -9 -1 -4 -17 l7 -24 -21 23 c-23 23 -45 30
-39 11 2 -6 7 -10 12 -9 18 3 27 -29 15 -51 -9 -17 -13 -19 -20 -8 -6 10 -9 8
-9 -9 0 -13 -4 -20 -10 -17 -15 9 -12 31 6 49 8 9 11 16 5 16 -6 0 -15 -9 -21
-20 -6 -11 -15 -18 -20 -15 -5 3 -11 1 -15 -5 -3 -5 1 -10 9 -10 9 0 16 -4 16
-10 0 -5 -4 -10 -9 -10 -17 0 -41 -31 -41 -52 0 -22 -26 -58 -42 -58 -4 0 -8
10 -8 23 0 16 -3 18 -9 9 -6 -11 -14 -6 -30 17 -18 25 -20 31 -7 31 19 0 22
36 4 43 -10 3 -10 8 -2 16 8 9 14 8 24 -4 16 -19 54 -19 70 0 10 12 10 15 -4
15 -9 0 -16 -5 -16 -11 0 -14 -42 -7 -47 8 -3 7 4 9 18 6 18 -5 21 -3 16 10
-4 10 -10 24 -13 32 -7 17 11 21 21 5 8 -12 52 -13 59 -1 4 5 -3 7 -14 4 -22
-6 -53 14 -44 29 3 5 12 1 18 -8 16 -22 28 -5 22 30 -3 15 2 30 10 37 13 10
14 8 10 -15 -3 -15 -1 -24 5 -21 5 4 7 11 4 16 -4 5 3 9 14 9 14 0 21 6 21 19
0 22 27 22 40 1z m70 -86 c0 -24 -30 -75 -82 -139 -27 -33 -56 -81 -65 -107
-20 -54 -38 -53 -28 1 8 42 31 82 86 148 22 26 47 65 56 85 16 36 33 42 33 12z
m3091 -16 c7 -17 35 -59 62 -92 72 -90 98 -153 78 -185 -8 -12 -11 -8 -17 15
-11 45 -33 85 -74 135 -52 62 -80 110 -80 137 0 32 15 27 31 -10z m-3050 -17
c8 -11 36 -44 62 -75 l48 -55 -16 -34 c-9 -19 -40 -63 -70 -98 -30 -35 -64
-83 -76 -106 -11 -24 -22 -43 -24 -43 -2 0 -29 29 -60 65 l-57 65 12 48 c8 34
29 71 67 118 30 38 62 84 71 102 18 37 24 39 43 13z m3013 -5 c3 -14 31 -55
61 -93 105 -130 110 -171 34 -256 -28 -31 -54 -57 -58 -57 -4 0 -12 15 -19 33
-7 17 -37 61 -68 97 -31 36 -65 84 -77 107 l-20 42 49 56 c27 31 56 65 64 75
20 26 27 25 34 -4z m-3196 -105 c-27 -35 -38 -38 -38 -13 0 23 19 42 43 42 17
0 17 -2 -5 -29z m312 -46 c0 -27 -30 -77 -91 -150 -31 -38 -64 -86 -72 -105
l-15 -35 -1 31 c-1 32 11 51 112 184 26 34 47 68 47 76 0 8 5 14 10 14 6 0 10
-7 10 -15z m2750 -27 c12 -24 43 -67 68 -96 53 -63 82 -117 82 -152 -1 -21 -4
-17 -24 22 -12 26 -44 72 -70 102 -25 30 -57 74 -71 98 -14 24 -25 35 -25 26
0 -10 -6 -18 -14 -18 -20 0 -15 -54 7 -58 10 -2 17 3 17 12 0 9 -5 16 -12 16
-6 0 -8 3 -4 7 4 4 18 -6 31 -21 19 -22 22 -32 14 -42 -11 -14 -4 -34 12 -34
5 0 9 8 9 17 0 13 3 14 12 5 8 -8 8 -15 -2 -27 -17 -20 -37 -19 -49 3 -6 9
-11 12 -11 6 0 -6 7 -18 16 -25 13 -11 21 -11 45 3 30 17 52 7 30 -15 -17 -17
-14 -40 5 -33 10 4 14 1 12 -6 -8 -23 -38 -21 -47 4 -6 13 -10 17 -10 9 -1
-10 -9 -7 -28 10 -24 21 -24 19 3 -11 17 -19 37 -44 43 -55 9 -15 11 -15 7 -2
-3 10 0 17 9 17 8 0 21 10 29 22 14 20 16 20 22 3 5 -11 3 -20 -4 -23 -17 -5
-15 -32 3 -38 13 -5 13 -9 -1 -35 -17 -33 -30 -37 -37 -11 -3 10 -5 6 -6 -10
-1 -32 -8 -35 -28 -10 -8 9 -12 12 -9 5 3 -6 3 -19 -1 -29 -6 -15 -7 -15 -14
5 -5 12 -4 32 3 46 9 21 8 28 -7 45 -10 11 -23 20 -29 20 -6 0 -3 -5 7 -11 19
-11 24 -59 6 -59 -6 0 -8 7 -5 16 3 8 2 12 -4 9 -13 -8 -31 30 -24 49 3 9 12
16 20 16 22 0 16 14 -9 26 -21 9 -23 8 -19 -12 2 -12 -1 -25 -7 -28 -6 -4 -11
-2 -11 3 0 6 -10 21 -22 33 -17 17 -19 23 -7 26 8 3 18 11 22 19 5 7 14 10 20
6 7 -4 1 7 -13 24 -14 17 -27 29 -29 27 -3 -3 0 -9 6 -15 8 -8 6 -16 -8 -30
-20 -20 -34 -26 -24 -10 3 5 1 12 -5 16 -13 8 -13 55 0 55 6 0 16 12 22 28
l11 27 6 -30 c5 -22 13 -31 31 -34 14 -1 27 -7 30 -11 3 -4 11 -2 18 6 14 15
16 14 -38 17 -35 3 -35 51 -1 94 14 17 27 32 27 32 1 1 12 -18 24 -41z m-3104
-7 c-9 -16 -12 -32 -8 -36 4 -5 2 -6 -3 -2 -6 3 -10 18 -9 34 3 36 1 33 19 33
14 0 14 -3 1 -29z m3440 17 c12 -19 12 -48 1 -55 -6 -3 -7 -1 -3 5 4 7 3 12
-2 12 -5 0 -12 11 -14 25 -5 26 5 34 18 13z m-3060 -26 c-22 -5 -30 3 -21 18
5 8 11 7 22 -2 15 -12 14 -13 -1 -16z m24 -42 c0 -19 -27 -33 -51 -28 -8 2
-13 -8 -13 -27 -1 -25 -5 -30 -26 -30 -16 0 -26 6 -28 18 -2 9 1 17 7 17 6 0
11 -7 11 -15 0 -8 4 -15 9 -15 18 0 22 19 9 39 -17 28 3 51 31 34 22 -14 43 1
34 25 -4 10 -2 13 5 8 7 -4 12 -16 12 -26z m30 -5 c0 -7 7 -15 15 -19 8 -3 15
-17 15 -32 0 -18 -4 -25 -14 -21 -10 4 -12 -1 -9 -16 6 -22 6 -22 -16 1 -18
18 -20 26 -11 37 25 30 3 14 -31 -22 -18 -20 -27 -32 -18 -25 11 9 24 9 40 3
13 -5 20 -10 14 -11 -5 0 -3 -5 5 -10 10 -6 11 -10 3 -10 -7 0 -13 -7 -13 -16
0 -10 -6 -14 -14 -11 -10 4 -13 1 -9 -9 3 -7 0 -14 -6 -14 -6 0 -11 4 -11 10
0 5 -9 14 -20 20 -16 9 -20 8 -20 -6 0 -11 5 -14 16 -10 11 4 15 2 11 -8 -3
-8 -1 -16 5 -18 7 -3 3 -13 -10 -26 -12 -12 -22 -28 -22 -34 0 -9 -4 -8 -10 2
-13 20 -12 26 6 44 8 9 11 16 6 16 -16 0 -34 -28 -30 -48 4 -22 -18 -52 -38
-52 -10 0 -13 8 -9 28 5 25 5 25 -4 5 -6 -13 -12 -23 -15 -23 -2 0 -14 16 -25
36 -17 29 -18 35 -6 30 21 -8 33 24 13 38 -8 6 -13 17 -10 24 3 11 7 10 21 -1
32 -28 58 -27 82 6 l22 31 -30 -22 c-32 -23 -63 -29 -63 -12 0 5 7 7 15 4 17
-7 20 13 6 36 -13 19 -2 34 14 20 8 -6 26 -10 42 -8 24 3 28 7 28 34 0 20 4
30 12 27 19 -8 53 16 53 38 0 11 5 17 10 14 6 -3 10 -12 10 -20z m60 -77 c0
-27 -28 -75 -80 -137 -41 -50 -63 -90 -74 -135 -11 -44 -25 -13 -16 34 8 43
24 70 85 145 22 28 47 65 54 83 16 37 31 42 31 10z m2468 -12 c7 -19 36 -63
64 -98 28 -34 57 -77 64 -95 16 -38 18 -93 4 -93 -5 0 -10 10 -10 23 0 28 -38
94 -89 155 -58 68 -85 142 -52 142 4 0 13 -15 19 -34z m-2409 -38 c94 -103 92
-99 72 -144 -10 -21 -41 -66 -69 -99 -29 -33 -62 -79 -74 -102 -13 -24 -25
-43 -28 -42 -3 0 -26 25 -52 56 -73 85 -66 128 37 256 30 38 58 79 61 93 3 13
8 24 10 24 2 0 21 -19 43 -42z m2375 10 c3 -13 31 -54 62 -93 103 -128 108
-167 32 -253 l-53 -59 -26 48 c-15 26 -49 74 -77 106 -28 32 -58 76 -67 97
-18 43 -24 32 74 139 41 43 47 45 55 15z m-2264 -143 c0 -26 -26 -68 -90 -146
-33 -41 -66 -89 -72 -106 -7 -18 -16 -33 -20 -33 -27 0 16 91 76 160 27 30 57
74 69 98 21 43 37 54 37 27z m2128 -18 c6 -18 36 -62 66 -98 54 -66 77 -104
90 -146 11 -35 -10 -27 -25 9 -7 17 -35 58 -61 89 -70 85 -98 129 -98 155 0
34 14 30 28 -9z m-2476 -12 c-2 -14 -9 -25 -14 -25 -5 0 -6 -5 -2 -12 4 -7 3
-8 -4 -4 -15 9 -15 39 0 54 19 19 26 14 20 -13z m422 -66 c-3 -6 3 -13 15 -16
15 -4 19 -11 17 -27 -3 -11 -5 -25 -5 -29 -1 -5 -5 -5 -11 -2 -6 3 -7 -1 -4
-9 8 -22 -2 -20 -26 4 -17 17 -18 20 -3 28 8 5 14 13 12 18 -2 5 -20 -9 -39
-31 -19 -22 -28 -35 -21 -29 7 7 22 9 33 6 15 -4 17 -7 6 -13 -10 -7 -9 -9 5
-9 19 0 21 -8 7 -30 -9 -13 -11 -13 -19 -1 -7 11 -10 7 -14 -15 -4 -27 -5 -28
-12 -6 -7 22 -45 32 -45 12 0 -5 6 -10 14 -10 8 0 17 -7 20 -16 7 -18 -23 -76
-36 -68 -13 8 -9 31 8 48 8 9 12 16 7 16 -17 0 -33 -24 -33 -51 0 -15 -3 -29
-7 -32 -5 -2 -2 -2 5 -1 17 4 15 -31 -2 -45 -11 -9 -14 -8 -12 6 0 10 -5 18
-13 18 -8 0 -17 9 -22 20 -5 13 -8 15 -9 5 0 -10 -9 -5 -25 15 -28 34 -32 47
-10 39 10 -4 15 0 15 14 0 11 -5 22 -11 24 -5 2 -7 11 -3 21 6 17 7 16 21 -3
8 -11 21 -20 29 -20 17 0 17 -5 3 -32 -8 -16 -8 -24 4 -35 10 -10 17 -11 21
-4 4 6 0 11 -8 11 -9 0 -16 2 -16 5 0 13 34 72 54 94 19 22 17 22 -17 -4 -36
-27 -39 -27 -55 -11 -15 15 -15 16 -1 11 22 -8 34 12 19 30 -9 11 -8 20 7 39
20 28 36 34 27 11 -4 -10 0 -15 11 -15 13 0 15 6 10 31 -8 35 10 56 32 38 17
-15 33 -2 33 27 0 15 -6 24 -15 24 -16 0 -20 12 -8 24 11 10 75 -62 67 -75z
m1995 39 c-33 -20 -37 -39 -12 -59 15 -13 15 -12 2 8 -11 18 -11 25 -1 35 9 9
12 7 12 -10 0 -19 5 -22 33 -20 30 3 32 1 29 -29 -1 -24 2 -33 14 -33 8 0 12
5 9 10 -3 6 -1 10 5 10 21 0 5 -35 -18 -38 -26 -4 -40 23 -25 47 9 14 7 17
-11 18 -11 1 -16 -1 -10 -3 7 -3 10 -14 7 -25 -11 -40 40 -65 71 -34 19 19 33
1 16 -20 -14 -17 -5 -50 10 -40 5 3 10 1 10 -4 0 -21 -36 -11 -75 21 l-40 32
35 -40 c19 -21 39 -43 44 -49 6 -6 6 -5 2 3 -5 7 -1 12 10 12 10 0 25 7 34 15
16 14 18 14 23 0 4 -9 1 -15 -8 -15 -23 0 -17 -30 8 -39 19 -8 20 -10 5 -16
-10 -4 -16 -11 -13 -16 3 -4 -12 -20 -34 -35 -23 -14 -38 -30 -35 -35 3 -5 -2
-6 -9 -3 -8 3 -17 15 -20 26 -5 16 -2 19 15 15 16 -5 18 -3 9 6 -6 6 -11 20
-11 31 0 21 -27 56 -43 56 -5 0 1 -8 14 -18 15 -13 20 -25 15 -37 -6 -16 -9
-15 -30 10 -25 28 -25 65 0 65 8 0 14 5 14 10 0 17 -19 11 -32 -10 -16 -25
-31 -26 -23 -1 3 11 1 22 -4 26 -7 3 -8 0 -5 -9 9 -24 -4 -19 -17 6 -10 18 -8
24 11 38 l23 18 -21 27 c-12 15 -22 23 -22 18 0 -5 6 -15 13 -22 10 -11 9 -14
-1 -18 -6 -3 -10 -8 -7 -13 3 -4 -2 -11 -11 -14 -13 -5 -15 -1 -11 21 4 16 4
22 1 15 -9 -19 -24 -4 -24 24 0 17 5 24 20 24 13 0 18 5 13 16 -8 20 57 89 68
72 5 -7 -3 -19 -22 -30z m-1936 -132 c-6 -18 -37 -69 -71 -112 -33 -44 -66
-99 -75 -124 -12 -36 -16 -41 -22 -27 -13 31 13 94 66 159 27 35 60 84 72 110
25 53 47 49 30 -6z m1855 12 c6 -18 39 -66 71 -107 61 -77 94 -152 74 -172 -8
-8 -15 1 -23 28 -14 42 -34 73 -98 156 -24 31 -45 71 -49 91 -7 45 9 47 25 4z
m-1760 -72 c34 -41 62 -82 62 -93 0 -24 -36 -80 -93 -143 -22 -25 -50 -66 -62
-92 l-22 -47 -62 71 c-58 66 -62 74 -56 107 9 48 24 75 82 147 27 33 55 75 62
92 8 18 16 32 20 31 3 0 34 -33 69 -73z m1791 -55 c59 -71 81 -112 81 -154 0
-33 -9 -48 -57 -103 l-57 -64 -27 50 c-15 27 -51 78 -80 112 -28 35 -58 78
-66 97 -16 37 -23 26 91 148 l40 42 18 -40 c10 -23 35 -62 57 -88z m-1699 -50
c0 -27 -27 -73 -85 -143 -35 -43 -70 -94 -76 -113 -7 -19 -17 -35 -21 -35 -27
0 16 88 82 170 29 36 59 80 68 98 15 30 32 43 32 23z m1563 -132 c63 -78 95
-145 78 -162 -5 -5 -12 3 -15 20 -4 16 -28 55 -54 87 -72 89 -112 149 -112
167 0 30 14 29 27 -1 7 -17 41 -67 76 -111z m-1533 96 c10 -13 9 -15 -9 -15
-12 0 -21 6 -21 15 0 8 4 15 9 15 5 0 14 -7 21 -15z m1415 -13 c-17 -4 -20
-48 -5 -57 6 -4 17 -2 24 4 20 17 41 -12 27 -37 -10 -19 -6 -32 11 -32 4 0 8
8 8 17 0 13 3 14 11 6 14 -14 5 -43 -14 -43 -26 0 -42 29 -29 50 10 17 8 19
-26 22 -35 3 -37 5 -35 36 1 40 22 70 34 50 5 -8 3 -14 -6 -16z m-1374 -36 c1
-6 1 -14 0 -18 0 -4 8 -9 18 -13 13 -4 17 -12 13 -30 -2 -14 -8 -25 -13 -25
-5 0 -6 -8 -3 -17 5 -17 5 -17 -9 0 -8 9 -20 17 -27 17 -9 0 -7 6 5 20 10 11
16 22 14 24 -2 1 -17 -12 -33 -31 -15 -18 -21 -31 -13 -28 23 10 49 -22 37
-46 -13 -23 -25 -26 -16 -3 3 8 2 12 -4 9 -6 -3 -10 -16 -10 -28 -1 -20 -2
-20 -13 -5 -16 21 -31 26 -34 13 -2 -5 2 -10 7 -10 6 0 10 -4 9 -9 0 -5 4 -12
10 -15 10 -6 -28 -61 -43 -61 -14 0 -5 40 12 49 9 6 12 11 7 11 -29 1 -51 -73
-25 -82 6 -2 5 -13 -3 -28 -8 -14 -11 -32 -9 -39 3 -9 0 -11 -7 -7 -7 4 -9 17
-6 28 5 14 1 21 -14 25 -12 3 -21 13 -21 22 0 12 -2 13 -9 3 -6 -11 -13 -7
-30 14 -24 30 -27 45 -9 42 16 -4 23 33 8 42 -7 4 -9 13 -5 20 6 10 10 9 17
-4 5 -9 17 -16 28 -16 10 0 20 -4 22 -10 2 -5 19 10 38 33 l35 42 -36 -28
c-37 -28 -63 -34 -74 -17 -3 5 0 7 8 4 21 -8 30 12 15 35 -14 23 -3 40 14 23
7 -7 16 -12 21 -12 5 0 1 7 -7 16 -9 8 -14 20 -11 25 7 11 26 12 23 2 -2 -5 2
-8 7 -8 6 0 9 12 8 26 -2 16 5 33 19 45 12 10 18 13 14 7 -4 -7 -5 -17 -1 -23
9 -14 35 0 35 20 0 13 5 17 20 13 11 -3 21 -10 21 -17z m1341 -33 c6 -7 21
-13 33 -13 18 0 21 -4 18 -25 -4 -19 0 -27 21 -36 22 -10 29 -9 45 5 21 19 42
3 22 -17 -17 -17 -13 -37 6 -37 13 0 14 -3 5 -12 -9 -9 -16 -8 -30 5 -21 19
-38 11 -21 -10 15 -18 44 -17 63 3 9 8 20 12 26 9 15 -10 12 -25 -6 -25 -9 0
-14 -7 -12 -17 2 -10 11 -17 21 -17 27 3 20 -16 -19 -53 -35 -32 -37 -33 -55
-17 -11 9 -19 27 -19 40 0 12 -7 30 -16 38 -22 23 -30 20 -9 -4 10 -11 15 -26
11 -35 -5 -14 -11 -11 -33 16 -19 22 -24 34 -15 37 7 2 10 8 6 13 -3 5 2 9 10
9 9 0 16 5 16 10 0 6 -5 10 -11 10 -7 0 -18 8 -26 18 -13 15 -13 15 -4 -5 12
-23 5 -56 -10 -48 -4 3 -6 12 -3 19 3 8 0 17 -7 22 -8 4 -10 3 -5 -4 4 -7 3
-12 -1 -12 -5 0 -14 9 -21 20 -11 18 -10 20 10 21 22 0 22 1 3 8 -11 5 -24 6
-29 3 -4 -2 -5 6 -2 19 3 13 3 18 0 11 -3 -6 -10 -10 -15 -6 -12 7 -11 54 1
54 6 0 16 12 23 27 10 23 12 24 16 7 2 -10 8 -25 13 -31z m-1276 -70 c-4 -15
-36 -66 -72 -112 -40 -52 -69 -101 -75 -128 -11 -41 -29 -51 -29 -15 0 43 25
93 80 162 33 41 65 90 71 108 14 41 34 28 25 -15z m1210 11 c4 -15 25 -50 48
-78 23 -28 51 -65 63 -81 28 -40 47 -110 35 -131 -7 -13 -12 -6 -20 29 -7 25
-32 71 -59 106 -65 84 -93 132 -93 159 0 31 18 28 26 -4z m-1087 -118 l102
-115 -14 -33 c-8 -18 -38 -62 -67 -98 -30 -35 -66 -85 -80 -112 l-27 -49 -92
106 c-90 102 -93 107 -86 143 9 49 24 76 83 149 27 34 55 76 62 92 7 17 14 31
15 31 2 0 49 -51 104 -114z m1120 -11 c56 -66 81 -116 81 -161 0 -38 -15 -59
-133 -189 l-44 -49 -19 39 c-10 21 -47 73 -81 114 -35 42 -68 91 -74 109 -11
32 -9 34 92 148 l102 115 17 -38 c9 -21 36 -60 59 -88z m138 -67 c13 -22 14
-56 2 -64 -9 -5 -10 -2 -6 9 3 9 2 17 -2 19 -13 5 -24 48 -12 48 5 0 13 -6 18
-12z m-1137 -64 c0 -29 -30 -80 -85 -145 -30 -35 -63 -83 -72 -106 -10 -24
-21 -43 -25 -43 -27 0 18 93 84 173 32 40 64 87 70 105 13 34 28 43 28 16z
m732 -32 c10 -20 40 -64 67 -96 56 -66 81 -112 81 -148 -1 -19 -4 -16 -21 17
-10 22 -48 76 -84 120 -36 44 -65 82 -65 86 0 16 -46 -4 -47 -21 -2 -23 22
-46 32 -30 10 15 32 12 39 -6 4 -9 1 -23 -5 -30 -11 -14 -5 -34 12 -34 5 0 9
7 9 15 0 8 5 15 11 15 6 0 9 -8 7 -17 -2 -12 -12 -18 -28 -18 -20 0 -25 5 -25
27 -1 15 -3 30 -6 33 -4 3 -6 -12 -5 -32 1 -34 4 -38 29 -41 16 -2 34 2 42 8
8 7 15 7 19 1 4 -5 2 -12 -4 -16 -17 -10 -12 -48 5 -41 8 3 15 1 15 -4 0 -17
-38 -11 -49 8 -6 9 -11 13 -11 8 0 -5 -8 -2 -17 5 -10 9 -8 2 6 -17 25 -34 54
-36 79 -5 11 14 14 14 22 1 7 -11 5 -16 -6 -18 -23 -5 -14 -48 9 -44 16 3 15
-1 -5 -32 -13 -19 -32 -37 -43 -40 -26 -7 -54 20 -48 45 5 20 -12 49 -29 49
-5 0 -2 -7 6 -16 17 -17 20 -27 9 -37 -3 -4 -17 5 -31 20 -14 15 -20 29 -14
31 6 2 8 10 5 18 -4 10 0 12 11 8 11 -4 16 -1 16 11 0 9 -6 15 -12 13 -7 -3
-19 3 -28 11 -8 9 -12 12 -7 7 9 -12 10 -56 1 -56 -4 0 -17 12 -30 27 -17 20
-20 29 -11 35 7 4 8 8 2 8 -5 1 1 6 14 11 16 6 28 6 40 -3 10 -8 9 -5 -3 10
-23 27 -31 27 -56 2 -16 -16 -20 -17 -20 -5 0 8 -4 15 -10 15 -5 0 -10 14 -10
31 0 26 3 30 19 26 14 -3 17 0 14 13 -3 12 10 35 37 64 24 25 45 46 49 46 3 0
14 -17 23 -38z m-656 -68 c-4 -9 1 -14 15 -14 16 0 20 -5 17 -27 -2 -16 -8
-27 -14 -26 -8 1 -10 -6 -6 -19 3 -14 1 -19 -6 -14 -7 4 -12 13 -12 19 0 7 -9
13 -20 14 -17 2 -18 -1 -10 -18 6 -10 15 -19 20 -19 14 0 12 -14 -6 -36 -14
-17 -15 -17 -10 -1 4 11 2 16 -5 12 -5 -4 -7 -15 -4 -26 8 -25 -7 -24 -23 1
-13 21 -32 27 -32 10 0 -5 6 -10 14 -10 25 0 25 -37 0 -65 -21 -25 -24 -26
-30 -10 -5 12 0 24 15 37 13 10 19 18 13 18 -18 0 -42 -31 -42 -54 0 -13 -9
-31 -20 -41 -18 -16 -20 -16 -26 -1 -3 9 -10 14 -14 11 -5 -3 -18 8 -30 25
-17 24 -18 30 -6 30 24 0 31 22 11 37 -13 9 -16 16 -9 23 8 8 15 6 24 -5 17
-21 53 -19 74 4 17 19 17 19 -3 14 -12 -3 -21 -9 -21 -14 0 -5 -9 -9 -20 -9
-11 0 -20 5 -20 10 0 6 7 10 15 10 18 0 20 21 4 37 -6 6 -8 16 -4 22 4 8 11 6
21 -4 31 -31 82 -6 71 34 -3 11 0 22 7 25 6 2 1 4 -10 3 -18 -1 -20 -4 -11
-18 15 -24 1 -51 -25 -47 -23 3 -39 38 -18 38 6 0 8 -4 5 -10 -3 -5 1 -10 10
-10 13 0 15 6 10 28 -6 31 17 64 30 42 11 -18 35 -11 35 12 0 17 3 19 12 10
10 -10 10 -17 -1 -35 -12 -21 -12 -21 4 -6 22 22 12 55 -20 63 -17 4 -23 11
-18 23 5 13 12 9 40 -21 20 -21 32 -44 29 -52z m64 -66 c0 -28 -30 -78 -89
-153 -24 -31 -52 -79 -61 -108 -14 -40 -20 -48 -25 -34 -14 33 16 104 76 179
32 40 64 88 70 106 12 37 29 43 29 10z m444 -6 c4 -15 24 -50 45 -77 84 -107
94 -125 99 -175 3 -33 1 -50 -7 -50 -6 0 -11 13 -11 29 0 19 -16 52 -45 93
-88 123 -105 152 -105 180 0 36 17 36 24 0z m-359 -76 l66 -75 -20 -39 c-11
-21 -43 -66 -71 -98 -27 -32 -61 -81 -74 -107 l-23 -49 -51 58 c-78 87 -72
133 30 259 26 33 54 75 60 93 7 17 13 32 14 32 1 0 32 -33 69 -74z m329 40 c3
-14 29 -53 57 -88 109 -135 114 -177 35 -266 l-54 -60 -16 41 c-9 23 -41 71
-72 107 -31 36 -65 84 -77 107 l-20 41 63 71 c35 39 66 71 70 71 4 0 11 -11
14 -24z m-244 -141 c0 -29 -32 -79 -103 -163 -106 -125 -104 -89 2 44 32 38
63 85 70 102 14 34 31 43 31 17z m112 -27 c9 -18 39 -62 68 -98 56 -70 73
-100 84 -142 9 -39 -7 -35 -22 5 -6 17 -32 57 -57 87 -64 78 -105 141 -105
162 0 28 15 21 32 -14z m-459 -8 c-3 -11 -10 -20 -15 -20 -6 0 -7 -7 -4 -16 3
-8 2 -12 -3 -9 -11 6 -9 44 3 63 11 18 25 5 19 -18z m367 10 c0 -5 -5 -10 -11
-10 -5 0 -7 5 -4 10 3 6 8 10 11 10 2 0 4 -4 4 -10z m46 -18 c-17 -4 -26 -35
-16 -51 4 -7 17 -10 32 -6 15 4 29 2 32 -4 4 -6 3 -11 -2 -11 -13 0 -7 -43 6
-48 7 -2 12 4 12 14 0 13 3 15 11 7 18 -18 2 -45 -23 -41 -18 2 -23 10 -24 36
-1 36 -9 49 -19 33 -3 -6 -2 -11 3 -11 6 0 8 -9 5 -20 -11 -41 40 -67 67 -35
9 11 16 13 24 5 7 -7 6 -14 -2 -22 -17 -17 -15 -36 6 -41 16 -4 16 -4 -1 -12
-13 -5 -30 2 -60 26 l-42 33 36 -41 c21 -22 40 -51 44 -63 4 -12 9 -19 12 -17
2 3 0 15 -7 26 -9 18 -8 21 9 21 11 0 25 8 30 18 9 15 12 15 21 2 7 -11 5 -16
-5 -18 -22 -5 -18 -33 5 -39 18 -5 18 -7 4 -35 -19 -36 -64 -56 -76 -33 -5 8
-14 15 -19 15 -6 0 -3 -7 5 -16 18 -17 19 -30 5 -59 -9 -19 -9 -18 -5 3 2 12
1 22 -4 22 -14 0 -19 42 -7 61 14 23 1 49 -31 64 -25 11 -29 25 -7 25 8 0 15
5 15 10 0 17 -19 11 -32 -10 -14 -23 -28 -26 -28 -7 0 7 -9 19 -20 27 -23 16
-26 30 -7 30 7 0 17 8 23 18 9 14 8 23 -7 41 -11 13 -19 19 -19 14 0 -5 5 -14
11 -20 8 -8 5 -17 -11 -33 l-23 -23 6 29 c3 16 4 23 1 16 -9 -19 -24 -4 -24
24 0 14 6 24 14 24 7 0 17 10 21 23 6 22 7 21 17 -5 5 -16 14 -28 20 -28 7 0
6 5 -1 14 -15 17 -10 58 8 80 11 13 16 14 22 4 5 -8 3 -14 -5 -16z m382 16
c15 -15 16 -45 2 -53 -6 -4 -7 1 -3 11 4 11 2 15 -4 11 -6 -4 -13 4 -15 18 -6
27 1 32 20 13z m-363 -48 c3 -6 -1 -7 -9 -4 -18 7 -21 14 -7 14 6 0 13 -4 16
-10z m-117 -102 c6 -18 34 -60 60 -93 27 -33 56 -75 65 -92 19 -35 23 -113 7
-113 -5 0 -10 11 -10 25 0 35 -30 90 -83 156 -54 67 -67 90 -67 123 0 36 14
32 28 -6z m-34 -30 c3 -13 31 -54 62 -93 102 -127 110 -179 37 -259 l-48 -52
-21 45 c-12 26 -47 78 -79 116 -32 39 -64 85 -72 103 -14 33 -13 33 43 97 32
36 61 65 65 65 4 0 9 -10 13 -22z m176 -98 c6 -11 8 -25 5 -30 -6 -10 -16 -3
-44 33 -12 15 -11 17 7 17 12 0 26 -9 32 -20z m190 -37 c0 -24 -31 -73 -92
-146 -28 -34 -60 -82 -72 -107 -13 -30 -21 -39 -24 -28 -6 27 31 98 88 168 29
35 59 79 68 97 17 36 32 43 32 16z m-488 -25 c9 -18 41 -64 73 -103 55 -67 68
-89 81 -140 10 -41 -10 -28 -29 18 -9 23 -40 69 -69 102 -61 71 -88 114 -88
138 0 27 15 20 32 -15z m436 -10 c-9 -13 -38 -50 -67 -83 -28 -33 -59 -79 -68
-102 -20 -49 -23 -51 -40 -23 -11 17 -2 31 84 130 53 60 98 108 101 105 3 -2
-2 -15 -10 -27z m-483 -6 c-19 -4 -21 -62 -2 -62 7 0 18 5 23 10 17 17 38 -14
25 -38 -10 -19 -6 -32 10 -32 4 0 9 8 12 18 4 16 4 16 12 -1 10 -24 -7 -41
-34 -32 -22 7 -28 34 -11 51 6 6 -1 11 -22 12 -42 3 -50 10 -46 40 3 36 29 67
40 50 4 -8 2 -14 -7 -16z m579 -13 c-3 -5 2 -9 10 -9 14 0 20 -11 17 -32 0 -4
8 -10 19 -13 21 -7 23 -46 2 -53 -6 -2 -9 -11 -6 -20 5 -15 4 -15 -9 1 -8 9
-20 17 -27 17 -9 0 -7 6 5 20 10 11 16 22 14 24 -2 1 -17 -12 -33 -31 -15 -18
-21 -31 -13 -28 23 10 49 -22 37 -46 -13 -23 -25 -26 -16 -3 3 9 2 12 -5 8 -6
-3 -9 -15 -6 -25 6 -22 -8 -25 -20 -5 -10 18 -31 25 -32 11 -1 -5 4 -10 9 -10
6 0 10 -4 9 -9 0 -5 4 -12 10 -15 7 -5 4 -15 -9 -29 -11 -11 -20 -26 -20 -32
0 -6 -4 -8 -10 -5 -16 10 -12 43 8 54 9 6 12 11 7 11 -19 0 -35 -23 -35 -51 0
-15 -6 -30 -12 -33 -7 -3 -3 -3 9 0 18 4 20 1 16 -16 -3 -11 -9 -23 -14 -25
-4 -3 -5 -13 -2 -22 4 -11 3 -14 -6 -9 -7 4 -9 16 -6 28 5 14 1 21 -14 25 -12
3 -21 13 -22 22 0 13 -2 12 -8 -3 -7 -17 -9 -17 -29 9 -25 32 -29 57 -7 49 11
-5 15 1 15 19 0 14 -5 27 -12 29 -7 3 -8 10 -3 17 6 11 10 10 17 -3 5 -9 14
-16 20 -16 7 0 6 6 -2 15 -11 13 -10 14 3 10 21 -9 30 10 15 34 -15 25 -4 38
17 21 9 -7 18 -10 22 -6 3 3 1 6 -5 6 -7 0 -12 9 -12 20 0 11 5 20 10 20 6 0
9 -5 8 -11 -2 -6 3 -14 11 -17 11 -3 12 3 7 30 -5 27 -2 38 13 52 11 10 26 16
33 13 8 -3 6 -6 -5 -6 -10 -1 -17 -7 -14 -13 7 -23 30 -14 38 15 6 22 4 27
-12 27 -19 0 -25 11 -12 23 9 9 44 -23 37 -34z m-583 -67 c22 -3 25 -7 21 -27
-3 -19 2 -27 22 -36 22 -10 29 -9 45 5 21 19 42 3 22 -17 -17 -17 -13 -37 6
-37 13 0 14 -3 5 -12 -7 -7 -15 -8 -24 -1 -7 5 -22 13 -32 17 -19 7 -19 6 -1
-14 22 -24 61 -26 73 -4 5 9 14 14 21 10 16 -10 14 -26 -4 -26 -22 0 -18 -31
4 -37 12 -3 17 -11 14 -23 -5 -18 -43 -59 -43 -46 0 3 -11 -1 -25 -10 -14 -9
-22 -20 -19 -25 3 -5 0 -17 -6 -26 -10 -16 -11 -15 -7 5 3 12 2 22 -3 22 -9 0
-22 42 -15 48 3 3 13 -1 22 -9 15 -11 16 -11 6 1 -7 8 -13 24 -13 36 0 23 -24
54 -42 54 -6 0 0 -8 13 -18 15 -13 20 -25 16 -36 -6 -15 -10 -14 -32 12 -26
31 -25 62 1 62 8 0 14 5 14 10 0 6 -5 10 -11 10 -7 0 -18 8 -26 18 -13 15 -13
15 -4 -5 12 -24 4 -56 -11 -47 -5 3 -7 12 -4 20 3 7 0 16 -6 20 -7 4 -8 3 -4
-4 4 -7 3 -12 -1 -12 -5 0 -14 9 -21 20 -11 18 -10 20 10 21 22 0 22 1 3 8
-11 5 -24 6 -29 3 -4 -2 -5 6 -2 19 3 13 3 18 0 11 -3 -6 -10 -10 -15 -6 -16
9 -10 41 13 67 l22 25 11 -22 c6 -11 22 -22 36 -24z m675 -54 c-5 -28 -26 -61
-101 -158 -19 -25 -40 -66 -46 -92 -13 -50 -29 -55 -29 -10 1 41 32 102 89
173 28 35 57 78 63 96 14 39 32 32 24 -9z m-768 0 c7 -18 39 -66 71 -107 62
-77 95 -161 73 -183 -7 -7 -15 7 -26 44 -10 34 -35 78 -72 123 -58 72 -74 102
-74 136 0 29 15 23 28 -13z m34 -128 c60 -73 78 -111 78 -160 0 -37 -7 -50
-61 -111 -34 -38 -65 -69 -69 -69 -4 0 -11 12 -15 27 -8 31 -36 74 -80 123
-45 49 -85 111 -85 132 0 10 34 56 76 103 l77 86 17 -38 c9 -21 37 -63 62 -93z
m894 -27 c21 -30 3 -68 -73 -159 -33 -39 -67 -89 -76 -112 -9 -23 -19 -42 -21
-42 -2 0 -34 34 -71 76 -64 74 -66 78 -59 118 8 53 22 78 81 152 27 33 55 76
63 94 l14 33 63 -69 c35 -38 71 -79 79 -91z m-1049 -171 c55 -64 83 -117 82
-152 0 -22 -3 -20 -19 16 -9 22 -46 74 -80 115 -64 76 -96 132 -84 150 3 6 17
-9 31 -32 13 -24 45 -68 70 -97z m1087 130 c8 -13 -20 -66 -65 -121 -75 -92
-98 -125 -104 -154 -4 -15 -10 -25 -15 -22 -20 12 16 88 81 170 38 48 72 98
75 111 6 24 18 31 28 16z m-1194 -37 c0 -8 -6 -15 -13 -15 -16 0 -21 -46 -6
-56 6 -3 16 -1 22 5 9 9 8 14 -3 21 -8 5 -10 10 -5 10 9 0 45 -35 45 -44 0 -8
-66 -4 -77 6 -9 7 -13 7 -13 0 0 -16 15 -22 53 -24 28 -1 33 -4 29 -20 -3 -12
1 -18 12 -18 9 0 16 8 16 17 0 14 2 15 13 4 10 -10 7 -16 -12 -32 -13 -10 -19
-19 -13 -19 6 0 18 7 27 17 14 13 18 14 25 3 5 -8 3 -19 -6 -27 -17 -17 -8
-37 13 -29 9 4 13 1 11 -6 -8 -23 -38 -21 -47 4 -6 13 -10 17 -10 9 -1 -10 -9
-7 -28 10 -21 18 -19 14 7 -16 36 -43 55 -46 82 -13 17 19 18 19 25 2 4 -10 2
-19 -5 -22 -17 -5 -15 -42 3 -42 8 0 15 -6 15 -12 -1 -14 -34 -58 -44 -58 -3
0 -6 10 -7 23 -1 21 -2 18 -15 -21 -2 -9 -10 -6 -25 9 -11 11 -18 26 -16 34 7
16 -20 55 -36 55 -7 0 -4 -5 6 -11 19 -11 23 -44 5 -55 -8 -5 -9 -2 -5 10 4
10 3 15 -3 11 -13 -8 -31 30 -24 49 3 9 12 16 20 16 8 0 14 5 14 10 0 6 -6 10
-13 10 -8 0 -24 11 -37 25 -21 22 -20 30 3 26 12 -2 8 5 -20 30 -16 13 -23 18
-16 10 8 -10 7 -17 -8 -32 -23 -23 -33 -24 -25 -3 3 8 2 12 -4 9 -6 -4 -10 7
-10 24 0 17 5 31 10 31 6 0 15 11 20 25 5 14 13 24 17 23 5 -2 10 2 11 7 15
41 42 61 42 30z m1228 -3 c2 -7 -5 -12 -17 -12 -14 0 -19 5 -14 15 6 17 25 15
31 -3z m10 -52 c-5 -33 7 -29 15 5 5 19 5 19 12 -2 4 -12 13 -24 21 -27 16 -6
19 -56 4 -56 -5 0 -10 -7 -10 -15 0 -12 -5 -10 -21 6 -16 16 -18 23 -8 35 24
29 2 13 -32 -23 -18 -20 -27 -32 -18 -25 18 13 55 6 63 -14 5 -13 -33 -64 -48
-64 -9 0 -8 44 2 56 4 5 0 2 -8 -7 -9 -8 -21 -14 -28 -11 -6 2 -12 -4 -12 -13
0 -11 5 -15 15 -11 8 3 15 1 15 -4 0 -5 -9 -12 -20 -15 -24 -7 -44 -41 -36
-60 2 -7 -2 -19 -9 -25 -8 -7 -12 -16 -9 -21 3 -5 -2 -6 -10 -3 -9 3 -17 18
-17 33 l-1 26 -7 -28 -6 -29 -24 26 c-30 32 -36 58 -13 54 11 -2 18 5 20 20 2
12 -1 22 -7 22 -6 0 -11 7 -11 15 0 19 16 20 23 1 3 -7 17 -16 30 -18 20 -4
31 2 48 25 l22 31 -30 -22 c-32 -23 -63 -29 -63 -12 0 5 7 7 15 4 18 -7 21 31
4 42 -7 4 -8 9 0 17 7 7 15 6 25 -2 18 -15 58 -11 64 7 3 11 0 11 -16 1 -10
-7 -27 -9 -36 -6 -17 7 -22 37 -6 37 6 0 10 -7 10 -15 0 -8 4 -15 9 -15 16 0
24 21 13 32 -12 12 -4 45 13 52 7 2 16 -2 19 -11 5 -12 9 -13 22 -3 8 7 13 19
10 27 -3 7 -1 13 5 13 7 0 9 -12 7 -30z m-1344 -92 c7 -18 37 -62 66 -98 29
-36 59 -79 66 -97 16 -38 18 -99 4 -108 -6 -4 -10 6 -10 22 -1 40 -31 100 -79
158 -51 60 -84 122 -77 141 8 21 14 17 30 -18z m1439 26 c11 -12 -22 -76 -78
-148 -57 -75 -75 -112 -75 -152 0 -13 -4 -24 -10 -24 -13 0 -13 71 0 106 6 15
37 60 70 101 33 41 63 85 66 99 6 24 15 30 27 18z m-1405 -154 c25 -30 53 -73
63 -95 32 -69 26 -92 -48 -177 l-66 -77 -22 47 c-12 26 -48 79 -80 117 -32 39
-64 85 -72 103 -14 34 -14 34 44 99 32 36 67 76 77 90 l19 25 20 -38 c11 -22
40 -64 65 -94z m1503 43 c41 -47 72 -93 71 -102 -7 -30 -31 -66 -86 -131 -31
-36 -64 -84 -73 -107 -10 -24 -21 -42 -24 -40 -3 1 -34 33 -67 72 -51 57 -62
75 -62 105 1 48 28 105 84 169 25 30 52 70 58 88 7 18 15 33 18 33 4 0 40 -39
81 -87z m-1448 36 c6 -9 7 -24 2 -35 -7 -17 -9 -15 -14 10 -3 16 -12 31 -19
32 -7 1 -8 0 -2 -3 5 -2 10 -9 10 -15 0 -6 -6 -6 -15 2 -8 7 -15 17 -15 22 0
15 42 5 53 -13z m1217 -69 c-6 -11 -15 -20 -21 -20 -6 0 -7 -4 -4 -10 3 -5 1
-10 -4 -10 -15 0 -14 33 1 48 7 7 18 12 25 12 11 0 11 -5 3 -20z m-1130 -79
c0 -12 -20 -36 -20 -24 0 6 -3 19 -6 27 -5 12 -2 15 10 10 9 -3 16 -9 16 -13z
m1083 -4 c-3 -13 -11 -24 -18 -24 -8 0 -11 5 -7 11 4 6 7 14 8 19 3 15 4 17
13 17 4 0 6 -10 4 -23z m-1455 -19 c6 -18 39 -67 73 -108 34 -41 65 -85 70
-98 29 -75 17 -102 -14 -29 -9 23 -40 69 -69 102 -64 75 -88 114 -88 143 0 32
14 27 28 -10z m1832 15 c0 -24 -31 -73 -92 -146 -28 -34 -60 -82 -72 -107 -13
-30 -21 -39 -24 -28 -6 27 31 98 88 168 29 35 59 79 68 97 17 36 32 43 32 16z
m-1875 -41 c-9 -2 -15 -15 -15 -33 0 -27 3 -29 33 -27 31 3 32 2 29 -29 -2
-19 1 -33 7 -33 6 0 11 8 11 17 0 13 3 14 11 6 17 -17 3 -43 -21 -43 -25 0
-37 26 -23 49 9 14 7 17 -11 18 -11 1 -16 -1 -10 -3 7 -3 10 -14 7 -25 -11
-40 41 -66 67 -34 9 11 16 13 24 5 7 -7 6 -14 -2 -22 -17 -17 -15 -36 6 -41
16 -4 16 -4 -2 -12 -12 -5 -21 -3 -26 5 -5 8 -16 15 -25 16 -15 2 -15 1 1 -17
20 -23 57 -25 74 -4 7 8 16 12 21 9 14 -8 10 -24 -6 -24 -22 0 -18 -31 5 -37
27 -7 25 -25 -5 -53 -14 -13 -25 -20 -25 -17 0 4 -11 0 -25 -9 -14 -9 -22 -20
-19 -25 3 -5 0 -17 -6 -26 -9 -16 -10 -15 -5 5 4 12 2 22 -3 22 -10 0 -24 41
-17 48 3 3 13 -1 22 -9 15 -11 16 -11 6 1 -7 8 -13 24 -13 36 0 23 -24 54 -42
54 -6 0 0 -8 13 -18 15 -13 20 -25 15 -37 -6 -16 -9 -15 -30 10 -25 28 -25 65
0 65 8 0 14 5 14 10 0 17 -18 11 -33 -10 -14 -21 -29 -17 -21 5 3 7 0 16 -7
21 -8 4 -10 3 -5 -4 4 -7 2 -12 -3 -12 -6 0 -11 2 -11 4 0 2 -3 11 -6 20 -4
11 0 16 12 17 17 0 17 1 -1 8 -11 5 -24 6 -29 3 -4 -2 -5 6 -2 19 3 13 3 18 0
11 -9 -19 -24 -4 -24 24 0 21 9 29 32 25 4 0 5 6 1 15 -8 21 58 89 69 71 4 -7
2 -13 -7 -15z m1950 -52 c-3 -5 4 -11 15 -15 13 -4 19 -13 16 -28 -2 -12 -9
-21 -16 -19 -7 2 -9 -5 -5 -20 6 -21 5 -22 -8 -5 -8 9 -20 17 -27 17 -9 0 -7
6 5 20 10 11 16 22 14 23 -2 2 -20 -15 -39 -37 -19 -23 -27 -35 -18 -28 12 10
22 11 35 3 15 -9 16 -10 2 -11 -9 0 -23 -8 -30 -17 -13 -16 -12 -17 3 -5 9 8
24 12 33 10 15 -3 15 -5 0 -23 -14 -17 -16 -18 -11 -2 3 11 2 16 -4 12 -6 -3
-10 -16 -10 -28 -1 -20 -2 -20 -13 -5 -16 20 -35 27 -36 13 -1 -5 4 -10 9 -10
6 0 10 -4 9 -9 0 -5 4 -12 10 -15 7 -5 4 -15 -9 -29 -11 -11 -20 -26 -20 -32
0 -6 -4 -8 -10 -5 -16 10 -12 43 8 54 9 6 12 11 6 11 -28 1 -50 -73 -24 -82 6
-2 4 -15 -5 -32 -8 -15 -12 -33 -8 -39 3 -6 1 -7 -6 -3 -7 4 -9 16 -6 28 5 14
1 21 -14 25 -12 3 -22 13 -22 22 -1 13 -2 12 -6 -2 -4 -18 -6 -17 -29 4 -27
25 -33 62 -9 53 11 -5 15 1 15 20 0 14 -4 26 -10 26 -5 0 -6 8 -3 17 4 11 8
13 11 5 2 -7 13 -17 25 -24 22 -11 22 -11 3 11 -15 17 -16 20 -4 16 22 -9 31
10 16 34 -15 25 -4 38 17 21 9 -7 18 -10 22 -6 3 3 1 6 -5 6 -7 0 -12 9 -12
20 0 11 5 20 10 20 6 0 9 -5 8 -11 -2 -6 3 -14 11 -17 11 -3 12 3 7 31 -7 39
6 56 29 37 18 -15 31 -7 37 25 4 19 1 25 -13 25 -20 0 -25 11 -12 24 10 10 76
-62 68 -74z m-1543 38 c-7 -7 -12 -8 -12 -2 0 6 3 14 7 17 3 4 9 5 12 2 2 -3
-1 -11 -7 -17z m1604 -120 c-5 -28 -26 -61 -101 -158 -19 -25 -40 -66 -46 -92
-13 -50 -29 -55 -29 -10 1 41 32 102 89 172 28 35 56 79 62 97 13 40 33 33 25
-9z m-2108 0 c7 -18 39 -66 71 -107 42 -52 63 -88 72 -123 16 -70 -3 -83 -24
-16 -9 31 -37 79 -65 113 -56 69 -82 115 -82 145 0 30 14 24 28 -12z m34 -128
c60 -73 78 -111 78 -160 0 -37 -8 -50 -82 -136 l-81 -95 -22 45 c-12 25 -42
69 -66 98 -121 143 -121 139 -3 271 l96 109 18 -39 c9 -21 37 -63 62 -93z
m2173 48 c123 -141 118 -132 102 -170 -8 -19 -36 -60 -63 -93 -66 -79 -89
-114 -100 -148 -9 -28 -10 -28 -98 74 -85 100 -88 104 -82 142 8 51 24 79 83
153 27 33 55 75 62 92 8 18 16 32 20 31 3 0 38 -37 76 -81z m-2442 -180 c8
-18 44 -70 80 -116 65 -81 96 -147 78 -165 -5 -5 -12 5 -16 23 -4 17 -35 67
-70 109 -34 42 -72 95 -84 117 -12 21 -19 29 -16 17 5 -17 1 -22 -16 -25 -48
-7 -50 -69 -3 -75 15 -2 14 -1 -3 7 -24 10 -31 44 -11 56 7 5 9 2 5 -8 -9 -24
12 -39 36 -27 27 15 42 -2 27 -30 -11 -22 -6 -41 11 -41 5 0 9 7 9 15 0 8 5
15 10 15 14 0 13 -23 -2 -38 -9 -9 -9 -12 -1 -12 7 0 15 5 19 11 4 8 9 8 17 0
8 -8 8 -14 -1 -23 -17 -17 -15 -41 3 -34 8 3 15 1 15 -4 0 -17 -31 -11 -63 12
l-30 22 22 -31 c24 -33 50 -34 82 -6 14 11 18 12 21 1 3 -7 -2 -18 -10 -24
-19 -14 -8 -46 13 -38 11 5 14 2 9 -12 -11 -29 -26 -45 -52 -55 -31 -12 -52 4
-52 40 0 27 -16 51 -33 51 -5 0 -1 -7 7 -16 18 -18 19 -24 6 -44 -6 -10 -10
-11 -10 -2 0 6 -10 22 -22 34 -13 13 -17 23 -10 26 6 2 8 10 5 18 -4 10 0 12
11 8 11 -4 16 -1 16 11 0 9 -5 13 -10 10 -6 -4 -20 4 -31 17 l-21 23 15 -24
c16 -24 13 -51 -5 -51 -6 0 -8 7 -5 14 4 10 1 13 -9 9 -8 -3 -14 1 -14 11 0 9
-6 16 -12 16 -9 0 -8 4 2 10 8 5 11 10 5 10 -5 1 1 6 14 11 16 6 28 6 40 -3
10 -8 9 -5 -3 10 -24 28 -30 28 -57 0 l-22 -23 6 22 c3 15 1 20 -9 16 -10 -4
-14 4 -14 27 0 28 3 32 21 27 16 -4 18 -3 9 8 -9 10 0 26 37 68 26 31 49 56
50 56 2 1 9 -14 16 -31z m2573 1 c-3 -18 -21 -51 -39 -74 -17 -24 -53 -71 -79
-105 -27 -34 -48 -71 -48 -81 0 -10 -5 -19 -11 -19 -7 0 -8 12 -4 33 10 44 16
54 85 138 33 41 66 89 72 107 15 41 32 42 24 1z m54 -31 c17 -19 28 -41 26
-50 -3 -12 2 -18 15 -18 14 0 18 -6 15 -22 -3 -13 -5 -27 -5 -31 -1 -5 -5 -6
-10 -3 -5 4 -7 -4 -4 -16 l6 -23 -22 23 c-12 12 -26 22 -31 22 -17 0 -11 -18
11 -33 17 -13 19 -19 10 -36 -13 -24 -26 -28 -17 -5 3 9 2 12 -4 9 -6 -4 -9
-14 -8 -23 2 -9 -3 -17 -9 -18 -7 -1 -19 -2 -27 -3 -22 -2 -46 -30 -46 -53 0
-22 -26 -58 -42 -58 -4 0 -8 8 -8 18 0 12 -2 14 -8 4 -7 -10 -12 -8 -24 5 -23
27 -30 53 -13 53 22 0 27 17 9 35 -11 11 -13 20 -7 26 6 6 14 4 23 -6 17 -21
53 -19 74 4 17 19 17 19 -3 14 -12 -3 -21 -9 -21 -14 0 -5 -9 -9 -20 -9 -11 0
-20 5 -20 10 0 6 7 10 16 10 10 0 14 5 10 15 -3 8 -9 23 -13 32 -5 13 -3 15
13 9 58 -24 86 -13 82 35 -3 35 -12 28 -13 -9 0 -22 -5 -27 -25 -27 -17 0 -25
6 -27 20 -2 11 0 14 3 8 3 -7 12 -13 20 -13 11 0 14 8 11 30 -3 18 0 34 9 41
10 8 14 8 14 0 0 -6 9 -11 20 -11 14 0 20 7 20 22 0 17 3 19 12 10 10 -10 10
-17 -1 -35 -13 -20 -13 -21 2 -8 24 20 21 38 -10 58 -16 9 -30 18 -32 19 -4 3
9 24 15 24 2 0 18 -15 34 -32z m90 -121 c0 -26 -29 -75 -93 -158 -26 -34 -52
-81 -59 -106 -14 -56 -33 -43 -23 16 4 26 24 64 53 103 76 99 90 121 97 151 8
31 25 27 25 -6z m-2855 -5 c3 -16 31 -60 61 -98 77 -96 90 -126 85 -192 -2
-21 -21 -3 -21 19 0 28 -26 77 -70 130 -55 65 -80 110 -80 142 0 35 17 35 25
-1z m-30 -39 c9 -21 34 -59 56 -85 59 -71 89 -128 89 -172 0 -33 -8 -48 -56
-102 -31 -35 -59 -64 -64 -64 -4 0 -10 13 -13 29 -4 16 -35 65 -70 108 -69 85
-100 136 -95 158 2 11 127 162 135 164 2 1 10 -16 18 -36z m2975 -39 c36 -42
66 -79 68 -84 6 -17 -29 -78 -83 -141 -31 -35 -66 -86 -78 -112 l-24 -49 -58
67 c-53 60 -59 70 -56 107 3 51 21 86 83 163 26 33 54 75 60 93 7 17 14 32 18
31 3 0 34 -34 70 -75z m-231 -61 c-13 -16 -25 -30 -26 -32 -2 -2 -5 4 -9 13
-8 21 13 46 39 46 20 0 20 -1 -4 -27z m310 -95 c-7 -16 -41 -64 -76 -106 -35
-43 -69 -94 -75 -114 -6 -21 -15 -35 -19 -32 -19 11 23 98 81 171 35 43 70 94
78 113 12 27 17 31 20 17 2 -10 -2 -32 -9 -49z m-3204 20 c8 -18 40 -64 71
-103 60 -74 84 -120 84 -157 -1 -17 -7 -10 -25 27 -14 28 -48 77 -75 109 -56
64 -94 131 -85 146 9 15 13 13 30 -22z m359 0 c7 -11 6 -23 -2 -40 -7 -12 -10
-15 -8 -5 3 9 2 17 -3 17 -5 0 -11 11 -14 25 -5 28 10 29 27 3z m2499 2 c-3
-11 -10 -20 -15 -20 -5 0 -6 -10 -3 -21 5 -14 3 -19 -4 -15 -10 6 -12 51 -4
69 9 17 31 6 26 -13z m434 -76 c-3 -17 0 -20 15 -16 15 3 18 -2 18 -27 0 -17
-4 -31 -10 -31 -5 0 -10 -7 -10 -15 0 -12 -5 -10 -21 6 -17 17 -18 23 -8 37 7
9 -1 4 -19 -12 -31 -28 -46 -50 -19 -28 9 8 18 5 34 -12 17 -18 19 -25 8 -39
-6 -9 -15 -14 -18 -10 -4 3 -7 -1 -7 -10 0 -9 -4 -17 -10 -17 -12 0 -14 41 -2
56 4 5 0 2 -8 -7 -9 -8 -21 -14 -28 -11 -6 2 -12 -1 -12 -7 0 -6 7 -11 15 -11
18 0 20 -20 3 -21 -7 0 -5 -4 6 -8 17 -7 17 -9 -9 -37 l-28 -29 5 32 c4 27 2
31 -9 21 -8 -6 -12 -21 -9 -32 3 -12 -2 -24 -12 -32 -14 -10 -15 -15 -4 -26
11 -11 12 -10 7 3 -4 10 0 19 10 23 13 5 15 1 9 -17 -4 -12 -10 -23 -14 -25
-4 -2 -5 -13 -2 -25 3 -12 2 -19 -1 -16 -4 3 -8 15 -10 28 -2 12 -8 26 -14 29
-6 4 -13 18 -16 32 -4 25 -4 25 -6 -2 -1 -35 -6 -35 -35 -1 -24 28 -24 53 0
53 8 0 14 9 14 20 0 11 -4 20 -10 20 -5 0 -10 7 -10 15 0 19 16 20 23 1 3 -7
16 -15 30 -18 19 -4 31 3 53 31 20 26 22 31 6 17 -17 -15 -22 -16 -23 -5 0 8
-4 4 -9 -8 -10 -24 -34 -31 -45 -13 -3 6 1 10 9 10 18 0 22 25 5 36 -7 4 -7
10 -1 16 6 6 17 5 31 -4 27 -17 56 0 56 33 0 13 4 27 10 31 5 4 0 6 -11 6 -18
-2 -20 -5 -11 -19 14 -23 2 -49 -23 -49 -21 0 -38 26 -25 38 4 4 10 1 12 -5 3
-7 12 -13 20 -13 10 0 13 5 8 18 -16 38 -11 47 24 47 40 0 50 16 24 43 -11 10
-17 24 -15 31 7 22 74 -50 69 -75z m-3327 61 c0 -8 -6 -15 -13 -15 -18 0 -20
-47 -2 -54 19 -7 31 14 14 25 -8 5 -9 9 -3 9 21 0 45 -38 42 -65 -2 -16 2 -30
10 -32 6 -3 12 3 12 13 0 15 2 16 13 5 10 -10 8 -15 -7 -27 -11 -8 -15 -14
-10 -14 6 0 15 5 22 12 9 9 15 9 23 1 9 -9 8 -16 -5 -28 -19 -19 -11 -39 11
-30 13 4 14 3 3 -10 -8 -9 -9 -15 -2 -15 6 0 15 7 20 16 7 13 11 14 17 4 4 -7
2 -16 -5 -20 -13 -8 -10 -47 4 -42 21 8 23 -23 3 -50 -25 -34 -37 -36 -38 -5
l-2 22 -4 -22 c-2 -13 -8 -23 -12 -23 -14 0 -43 38 -37 48 9 15 -3 40 -22 47
-14 5 -15 4 -4 -6 15 -16 16 -49 0 -49 -6 0 -9 3 -5 6 3 4 -4 15 -16 26 -14
13 -18 21 -10 24 7 3 9 12 6 20 -4 10 0 12 12 8 12 -5 16 -3 13 6 -7 22 -38
21 -38 -1 0 -10 -4 -19 -10 -19 -5 0 -10 9 -10 19 0 11 -4 23 -10 26 -6 4 -7
-1 -4 -12 5 -16 4 -16 -10 1 -12 16 -13 22 -3 28 6 4 8 8 2 8 -5 1 0 5 13 11
13 5 20 13 17 19 -7 12 -45 -5 -45 -20 0 -6 -5 -10 -11 -10 -6 0 -9 7 -5 15 3
8 1 15 -4 15 -6 0 -10 14 -10 30 0 35 25 41 33 8 4 -12 9 -20 11 -17 3 3 0 20
-6 37 -11 29 -10 34 17 62 32 33 45 38 45 15z m3270 -29 c0 -2 -7 -7 -16 -10
-8 -3 -12 -2 -9 4 6 10 25 14 25 6z m-3301 -225 c23 -27 48 -65 56 -85 17 -40
20 -102 5 -111 -6 -4 -10 5 -10 20 0 41 -26 92 -85 169 -58 77 -79 120 -70
145 4 11 15 0 35 -37 16 -29 47 -74 69 -101z m3424 136 c8 -21 -25 -86 -72
-142 -54 -63 -81 -116 -81 -155 0 -16 -4 -30 -10 -30 -15 0 -12 76 4 113 7 18
39 63 69 101 31 38 59 82 62 98 7 30 20 37 28 15z m-3529 -59 c7 -18 39 -64
70 -103 78 -97 94 -161 55 -216 -24 -34 -39 -37 -39 -10 0 11 -5 23 -11 26 -7
5 -5 13 6 25 15 17 15 20 0 44 -10 14 -21 26 -26 26 -5 0 -9 14 -9 32 0 31
-24 68 -44 68 -6 0 0 -7 12 -16 24 -16 30 -58 10 -70 -8 -5 -9 -2 -5 10 16 41
-31 76 -69 51 -29 -19 -34 -19 -34 -1 0 8 -10 22 -22 30 l-22 16 24 27 c45 51
84 93 87 93 1 0 9 -15 17 -32z m3606 -25 l51 -58 -24 -20 c-13 -12 -22 -26
-19 -33 2 -7 -1 -12 -7 -12 -6 0 -11 4 -11 9 0 14 -37 23 -60 16 -11 -3 -24
-20 -29 -38 -8 -29 -9 -29 -10 -7 -1 34 10 49 45 60 21 6 23 9 9 9 -31 1 -65
-27 -65 -55 0 -13 -5 -24 -12 -24 -20 0 -48 -32 -48 -54 1 -16 4 -14 15 12 8
17 21 32 30 32 12 0 11 -4 -5 -20 -11 -11 -20 -26 -20 -32 0 -7 7 -2 16 10 15
22 48 30 58 13 9 -15 -11 -58 -30 -65 -10 -4 -25 1 -38 11 -19 17 -20 17 -7 1
11 -15 11 -23 0 -49 l-13 -32 -23 29 c-27 34 -30 91 -8 137 8 18 40 63 70 100
30 38 58 79 61 93 3 13 10 24 14 24 5 0 31 -26 60 -57z m-3719 -84 c19 -10 18
-12 -17 -30 -45 -22 -51 -19 -29 15 20 30 20 30 46 15z m3805 -14 c20 -31 11
-45 -14 -22 -10 10 -27 17 -37 17 -14 0 -15 3 -5 15 18 22 37 18 56 -10z
m-3681 -35 c3 -5 1 -19 -5 -30 -10 -19 -13 -19 -40 -5 -34 17 -39 39 -13 54
18 9 46 0 58 -19z m3573 18 c19 -19 14 -35 -17 -48 -34 -13 -51 -7 -51 19 0
21 19 41 40 41 9 0 21 -5 28 -12z m76 -4 c19 -7 22 -54 4 -54 -7 1 -24 7 -36
14 -22 12 -23 14 -7 29 19 19 18 19 39 11z m-3746 -24 c2 -12 -46 -46 -54 -37
-3 3 -7 30 -5 45 1 19 55 11 59 -8z m288 -23 c2 -20 -1 -39 -6 -42 -4 -3 -7 5
-7 18 1 12 -3 33 -7 46 -6 17 -5 22 5 19 7 -2 14 -21 15 -41z m-388 8 c16 -35
15 -70 -2 -84 -11 -9 -15 -8 -20 4 -3 8 -17 20 -31 27 -29 13 -31 25 -9 56 20
29 48 28 62 -3z m179 -61 c14 -27 14 -38 4 -60 -6 -15 -9 -29 -7 -32 3 -2 11
7 17 22 12 25 13 25 31 10 10 -10 18 -24 19 -33 0 -12 3 -11 9 4 7 17 9 15 9
-11 1 -17 -1 -33 -4 -36 -3 -3 -28 6 -55 20 -49 25 -50 26 -44 64 9 55 -16 82
-69 74 -41 -7 -44 9 -4 23 34 13 77 -8 94 -45z m3644 46 c30 -17 22 -25 -23
-25 -36 0 -44 -4 -56 -27 -10 -21 -10 -33 -1 -49 10 -19 8 -25 -12 -40 -13
-10 -32 -19 -41 -19 -10 0 -18 -4 -18 -10 0 -5 -6 -10 -14 -10 -20 0 -30 35
-17 57 8 14 10 14 11 3 0 -10 5 -7 16 8 19 28 28 28 42 0 9 -19 10 -16 5 19
-5 37 -2 46 25 73 32 32 51 36 83 20z m-3583 -22 c7 -7 12 -21 12 -32 0 -17 2
-18 10 -6 5 8 10 10 10 4 0 -6 -8 -18 -17 -27 -21 -18 -46 -6 -57 30 -12 38
15 58 42 31z m-110 -24 c24 -17 27 -54 4 -62 -7 -2 -10 2 -6 12 8 21 -13 46
-40 46 -17 0 -18 2 -6 10 20 13 22 13 48 -6z m3698 5 c4 -7 1 -10 -7 -7 -24 9
-49 -11 -49 -38 0 -14 -4 -22 -10 -19 -16 10 -11 53 8 64 23 14 49 14 58 0z
m128 -36 c-14 -10 -20 -11 -23 -2 -2 7 5 18 15 26 14 10 20 11 23 2 2 -7 -5
-18 -15 -26z m-4010 -33 c23 0 30 -38 12 -65 -18 -27 -63 -34 -84 -13 -21 21
-13 31 19 24 28 -5 30 -4 18 10 -7 9 -22 14 -36 11 -18 -3 -23 0 -23 18 0 12
10 34 21 49 l21 27 19 -30 c10 -17 25 -31 33 -31z m14 48 c16 -16 15 -28 -3
-28 -8 0 -19 9 -25 20 -8 15 -8 20 3 20 7 0 18 -5 25 -12z m4081 -24 c17 -39
14 -54 -13 -54 -13 0 -30 -7 -37 -17 -13 -15 -12 -15 10 -4 32 18 55 -3 27
-25 -27 -19 -52 -18 -76 6 -28 28 -25 45 18 88 41 42 54 43 71 6z m-4184 -105
c4 -5 18 -14 31 -19 46 -18 44 -78 -2 -99 -22 -9 -31 -9 -49 3 -32 21 -38 48
-21 90 15 36 29 45 41 25z m4225 -8 c17 -33 12 -89 -9 -101 -45 -23 -91 2 -91
51 0 22 8 31 38 47 48 25 50 25 62 3z m-3801 -55 c25 -40 26 -63 4 -88 -20
-22 -37 -23 -54 -1 -13 15 -11 16 21 10 32 -6 34 -6 16 8 -11 8 -27 15 -37 15
-30 0 -33 42 -6 78 16 21 34 14 56 -22z m3399 22 c7 -7 12 -26 12 -44 0 -27
-4 -32 -27 -36 -16 -3 -36 -9 -45 -13 -15 -6 -18 -2 -18 23 0 31 33 82 54 82
6 0 17 -5 24 -12z m307 -115 l-17 -28 21 27 c31 39 58 28 67 -28 3 -24 4 -57
2 -74 -3 -16 0 -30 5 -30 6 0 8 31 4 79 -4 60 -2 81 8 85 16 6 56 -36 89 -94
14 -25 26 -41 26 -36 0 5 -14 34 -30 63 -25 43 -27 52 -12 44 28 -15 102 -99
102 -116 0 -22 -36 -41 -135 -70 -241 -70 -291 -33 -179 133 30 46 58 82 61
79 2 -3 -3 -18 -12 -34z m-4152 -63 l-1 -85 7 77 c4 43 10 80 13 83 9 9 29
-49 38 -107 l8 -53 1 48 c0 27 -6 62 -15 79 -13 25 -14 32 -2 39 24 16 33 8
86 -75 58 -93 65 -127 27 -152 -22 -14 -30 -14 -101 0 -162 34 -244 68 -244
102 0 17 53 78 93 106 31 22 30 17 -3 -32 -10 -14 -21 -36 -24 -50 -4 -14 4
-6 19 20 35 59 66 91 84 88 13 -3 15 -19 14 -88z m3837 75 c-7 -8 -22 -15 -34
-15 -21 1 -21 1 -2 15 27 21 53 20 36 0z m44 -21 c3 -9 6 -31 6 -49 0 -33 -1
-34 -34 -28 -18 3 -36 1 -39 -4 -3 -5 6 -9 20 -8 34 0 41 -23 10 -30 -33 -9
-65 10 -73 42 -9 35 6 56 41 58 15 0 33 8 39 18 14 21 22 22 30 1z m-3474
-138 c14 -1 31 -5 38 -9 17 -11 15 -63 -4 -81 -23 -24 -70 -20 -88 6 -27 38
-17 105 13 92 9 -4 27 -8 41 -8z m203 -204 c34 -32 36 -76 5 -96 -49 -30 -311
-49 -336 -24 -7 7 -12 20 -12 30 0 20 38 100 64 133 14 18 14 15 1 -29 -8 -27
-15 -61 -14 -75 1 -23 2 -21 11 9 5 19 15 55 22 80 9 33 18 46 33 48 17 3 21
-4 25 -35 6 -40 35 -119 42 -112 3 2 -4 29 -14 59 -11 30 -19 64 -20 74 0 19
0 19 21 0 12 -10 32 -39 45 -64 13 -25 23 -38 23 -30 1 18 -35 81 -56 97 -12
9 -12 15 -2 31 12 20 15 19 73 -25 34 -26 73 -58 89 -71z"/>
<path d="M540 5181 c0 -6 -15 -18 -32 -26 -18 -8 -26 -14 -17 -15 22 0 66 36
57 46 -5 4 -8 2 -8 -5z"/>
<path d="M444 5121 c-5 -5 -20 -11 -34 -14 -21 -4 -20 -4 7 -6 17 0 35 4 38
10 9 14 1 21 -11 10z"/>
<path d="M3920 5091 c0 -6 4 -13 10 -16 6 -3 7 1 4 9 -7 18 -14 21 -14 7z"/>
<path d="M3970 4993 c23 -35 40 -43 40 -17 0 8 -5 12 -10 9 -6 -4 -20 4 -31
17 -19 21 -19 21 1 -9z"/>
<path d="M4081 4884 c0 -11 3 -14 6 -6 3 7 2 16 -1 19 -3 4 -6 -2 -5 -13z"/>
<path d="M4055 4880 c3 -5 8 -10 11 -10 2 0 4 5 4 10 0 6 -5 10 -11 10 -5 0
-7 -4 -4 -10z"/>
<path d="M692 5122 c-11 -25 -11 -25 4 -10 9 9 15 21 13 27 -2 6 -10 -2 -17
-17z"/>
<path d="M705 5090 c-3 -5 -1 -10 4 -10 6 0 11 5 11 10 0 6 -2 10 -4 10 -3 0
-8 -4 -11 -10z"/>
<path d="M639 5023 c-13 -16 -12 -17 4 -4 9 7 17 15 17 17 0 8 -8 3 -21 -13z"/>
<path d="M570 4890 c0 -5 5 -10 11 -10 5 0 7 5 4 10 -3 6 -8 10 -11 10 -2 0
-4 -4 -4 -10z"/>
<path d="M3740 4530 c0 -5 5 -10 10 -10 6 0 10 5 10 10 0 6 -4 10 -10 10 -5 0
-10 -4 -10 -10z"/>
<path d="M979 4653 c-13 -16 -12 -17 4 -4 9 7 17 15 17 17 0 8 -8 3 -21 -13z"/>
<path d="M1314 4446 c4 -10 1 -25 -5 -32 -14 -17 -49 -18 -49 -1 0 8 -3 8 -9
-2 -6 -9 -5 -21 2 -32 9 -15 8 -22 -6 -36 -14 -15 -21 -16 -37 -5 -11 7 -20 8
-20 3 0 -13 30 -22 51 -16 20 7 34 39 24 55 -4 6 5 10 19 10 32 0 52 32 36 58
-11 16 -11 15 -6 -2z"/>
<path d="M3430 4180 c0 -5 5 -10 10 -10 6 0 10 5 10 10 0 6 -4 10 -10 10 -5 0
-10 -4 -10 -10z"/>
<path d="M1628 4057 c-14 -19 -19 -20 -38 -9 -12 8 -19 9 -15 3 3 -6 1 -11 -4
-11 -7 0 -7 -7 1 -21 11 -17 10 -22 -6 -35 -11 -8 -15 -14 -9 -14 18 0 35 28
28 49 -5 15 -2 18 13 14 19 -4 52 19 52 38 0 13 -3 11 -22 -14z"/>
<path d="M1609 3943 c-13 -16 -12 -17 4 -4 9 7 17 15 17 17 0 8 -8 3 -21 -13z"/>
<path d="M1510 3824 c0 -8 5 -12 10 -9 6 4 8 11 5 16 -9 14 -15 11 -15 -7z"/>
<path d="M2980 4020 c0 -5 5 -10 11 -10 5 0 7 5 4 10 -3 6 -8 10 -11 10 -2 0
-4 -4 -4 -10z"/>
<path d="M2993 3993 c-18 -6 -16 -23 1 -23 17 0 30 16 19 23 -5 2 -14 2 -20 0z"/>
<path d="M3040 3966 c0 -2 8 -10 18 -17 15 -13 16 -12 3 4 -13 16 -21 21 -21
13z"/>
<path d="M3110 3820 c0 -5 5 -10 10 -10 6 0 10 5 10 10 0 6 -4 10 -10 10 -5 0
-10 -4 -10 -10z"/>
<path d="M2613 3644 c-8 -22 9 -48 33 -51 14 -2 12 0 -5 7 -18 8 -22 16 -19
35 6 28 1 33 -9 9z"/>
<path d="M2730 3384 c0 -8 5 -12 10 -9 6 4 8 11 5 16 -9 14 -15 11 -15 -7z"/>
<path d="M2761 3374 c0 -11 3 -14 6 -6 3 7 2 16 -1 19 -3 4 -6 -2 -5 -13z"/>
<path d="M2025 3590 c-3 -5 -1 -10 4 -10 6 0 11 5 11 10 0 6 -2 10 -4 10 -3 0
-8 -4 -11 -10z"/>
<path d="M1959 3523 c-13 -16 -12 -17 4 -4 16 13 21 21 13 21 -2 0 -10 -8 -17
-17z"/>
<path d="M1985 3509 c-4 -6 -5 -12 -2 -15 2 -3 7 2 10 11 7 17 1 20 -8 4z"/>
<path d="M1871 3394 c0 -11 3 -14 6 -6 3 7 2 16 -1 19 -3 4 -6 -2 -5 -13z"/>
<path d="M1890 3390 c0 -5 5 -10 10 -10 6 0 10 5 10 10 0 6 -4 10 -10 10 -5 0
-10 -4 -10 -10z"/>
<path d="M2420 3040 c0 -5 5 -10 10 -10 6 0 10 5 10 10 0 6 -4 10 -10 10 -5 0
-10 -4 -10 -10z"/>
<path d="M2452 3030 c0 -14 2 -19 5 -12 2 6 2 18 0 25 -3 6 -5 1 -5 -13z"/>
<path d="M2618 2937 c-14 -19 -19 -20 -38 -9 -12 8 -19 9 -15 3 3 -6 1 -11 -4
-11 -7 0 -7 -7 1 -21 11 -17 10 -22 -6 -35 -11 -8 -15 -14 -9 -14 18 0 35 28
28 49 -5 15 -2 18 13 14 19 -4 52 19 52 38 0 13 -3 11 -22 -14z"/>
<path d="M2528 2811 c-20 -15 -33 -32 -30 -39 5 -6 20 5 40 29 18 21 32 39 30
38 -2 0 -19 -13 -40 -28z"/>
<path d="M2599 2823 c-13 -16 -12 -17 4 -4 16 13 21 21 13 21 -2 0 -10 -8 -17
-17z"/>
<path d="M2500 2699 c0 -5 5 -7 10 -4 6 3 10 8 10 11 0 2 -4 4 -10 4 -5 0 -10
-5 -10 -11z"/>
<path d="M1995 2860 c-3 -5 1 -10 9 -10 8 0 18 5 21 10 3 6 -1 10 -9 10 -8 0
-18 -4 -21 -10z"/>
<path d="M2050 2846 c0 -2 8 -10 18 -17 15 -13 16 -12 3 4 -13 16 -21 21 -21
13z"/>
<path d="M2120 2700 c0 -5 5 -10 10 -10 6 0 10 5 10 10 0 6 -4 10 -10 10 -5 0
-10 -4 -10 -10z"/>
<path d="M2151 2694 c0 -11 3 -14 6 -6 3 7 2 16 -1 19 -3 4 -6 -2 -5 -13z"/>
<path d="M1801 2333 c-7 -8 -11 -16 -8 -19 2 -2 10 2 17 11 17 20 9 27 -9 8z"/>
<path d="M2896 2542 c-2 -4 -1 -14 4 -22 7 -11 9 -9 7 8 -1 24 -3 26 -11 14z"/>
<path d="M2835 2330 c-3 -5 -1 -10 4 -10 6 0 11 5 11 10 0 6 -2 10 -4 10 -3 0
-8 -4 -11 -10z"/>
<path d="M1333 2204 c-7 -19 7 -46 28 -52 8 -2 5 2 -5 10 -13 10 -17 22 -13
37 6 25 -1 28 -10 5z"/>
<path d="M1333 2113 c-18 -6 -16 -23 1 -23 17 0 30 16 19 23 -5 2 -14 2 -20 0z"/>
<path d="M1380 2086 c0 -2 8 -10 18 -17 15 -13 16 -12 3 4 -13 16 -21 21 -21
13z"/>
<path d="M1366 2057 c3 -10 9 -15 12 -12 3 3 0 11 -7 18 -10 9 -11 8 -5 -6z"/>
<path d="M1450 1940 c0 -5 5 -10 10 -10 6 0 10 5 10 10 0 6 -4 10 -10 10 -5 0
-10 -4 -10 -10z"/>
<path d="M3292 2179 c-7 -11 -21 -19 -30 -18 -38 3 -43 0 -30 -22 11 -17 10
-22 -6 -35 -11 -8 -15 -14 -9 -14 18 0 35 28 28 49 -5 15 -2 18 13 14 19 -4
52 19 52 38 0 14 -4 11 -18 -12z"/>
<path d="M3201 2051 c-19 -15 -32 -33 -30 -39 2 -6 19 7 37 28 39 47 38 49 -7
11z"/>
<path d="M3151 1954 c0 -11 3 -14 6 -6 3 7 2 16 -1 19 -3 4 -6 -2 -5 -13z"/>
<path d="M3170 1944 c0 -8 5 -12 10 -9 6 4 8 11 5 16 -9 14 -15 11 -15 -7z"/>
<path d="M1022 1722 c-2 -35 9 -62 25 -62 15 0 15 2 -2 14 -12 8 -16 20 -12
34 3 12 2 24 -2 27 -4 2 -8 -4 -9 -13z"/>
<path d="M1080 1509 c0 -5 5 -7 10 -4 6 3 10 8 10 11 0 2 -4 4 -10 4 -5 0 -10
-5 -10 -11z"/>
<path d="M1111 1504 c0 -11 3 -14 6 -6 3 7 2 16 -1 19 -3 4 -6 -2 -5 -13z"/>
<path d="M3675 1720 c-3 -5 -1 -10 4 -10 6 0 11 5 11 10 0 6 -2 10 -4 10 -3 0
-8 -4 -11 -10z"/>
<path d="M3609 1653 c-13 -16 -12 -17 4 -4 9 7 17 15 17 17 0 8 -8 3 -21 -13z"/>
<path d="M3635 1639 c-4 -6 -5 -12 -2 -15 2 -3 7 2 10 11 7 17 1 20 -8 4z"/>
<path d="M3595 1610 c-3 -5 3 -10 15 -10 12 0 18 5 15 10 -3 6 -10 10 -15 10
-5 0 -12 -4 -15 -10z"/>
<path d="M3521 1524 c0 -11 3 -14 6 -6 3 7 2 16 -1 19 -3 4 -6 -2 -5 -13z"/>
<path d="M3540 1520 c0 -5 5 -10 10 -10 6 0 10 5 10 10 0 6 -4 10 -10 10 -5 0
-10 -4 -10 -10z"/>
<path d="M3987 1421 c3 -11 -1 -29 -8 -38 -12 -14 -12 -16 1 -11 18 6 26 46
11 61 -7 7 -8 3 -4 -12z"/>
<path d="M3850 1183 c0 -15 19 -37 26 -31 3 4 -1 14 -10 23 -9 9 -16 13 -16 8z"/>
<path d="M640 1394 c0 -17 27 -37 42 -31 8 4 7 6 -4 6 -9 1 -22 9 -27 19 -6 9
-11 12 -11 6z"/>
<path d="M700 1364 c0 -8 5 -12 10 -9 6 4 8 11 5 16 -9 14 -15 11 -15 -7z"/>
<path d="M700 1320 c6 -11 15 -20 20 -20 6 0 2 9 -7 20 -10 11 -19 20 -21 20
-1 0 2 -9 8 -20z"/>
<path d="M721 1265 c20 -22 41 -49 47 -60 9 -17 10 -16 9 8 -1 15 -5 27 -9 27
-5 0 -8 7 -8 16 0 8 -5 12 -11 9 -6 -4 -23 3 -37 16 -15 13 -11 6 9 -16z"/>
<path d="M780 1171 c0 -7 -4 -10 -9 -6 -5 3 -12 1 -15 -4 -4 -5 -2 -12 3 -15
11 -7 36 22 27 31 -3 3 -6 1 -6 -6z"/>
<path d="M633 1066 c25 -28 34 -27 17 3 -6 12 -17 21 -25 21 -9 0 -7 -7 8 -24z"/>
<path d="M4382 713 c-18 -46 -25 -100 -13 -107 7 -5 11 6 11 33 0 22 5 52 10
67 6 15 9 29 7 31 -3 2 -9 -9 -15 -24z"/>
<path d="M4464 714 c4 -10 15 -41 23 -67 8 -27 17 -47 20 -44 7 8 -28 116 -40
124 -7 4 -8 -1 -3 -13z"/>
<path d="M260 746 c0 -2 8 -10 18 -17 15 -13 16 -12 3 4 -13 16 -21 21 -21 13z"/>
<path d="M154 694 c-16 -39 -30 -102 -21 -94 8 8 46 130 40 130 -2 0 -11 -16
-19 -36z"/>
<path d="M296 697 c3 -10 9 -15 12 -12 3 3 0 11 -7 18 -10 9 -11 8 -5 -6z"/>
<path d="M311 654 c0 -11 3 -14 6 -6 3 7 2 16 -1 19 -3 4 -6 -2 -5 -13z"/>
<path d="M720 423 c18 -24 35 -43 37 -43 9 0 -18 37 -43 60 -24 22 -23 20 6
-17z"/>
<path d="M571 368 c1 -18 5 -44 9 -58 6 -19 8 -11 9 33 1 32 -3 57 -9 57 -5 0
-10 -15 -9 -32z"/>
<path d="M3939 453 c-13 -16 -12 -17 4 -4 16 13 21 21 13 21 -2 0 -10 -8 -17
-17z"/>
<path d="M3895 414 c-9 -15 -12 -23 -6 -20 11 7 35 46 28 46 -3 0 -12 -12 -22
-26z"/>
<path d="M4053 370 c0 -36 2 -50 4 -32 2 17 2 47 0 65 -2 17 -4 3 -4 -33z"/>
<path d="M3992 355 c-6 -14 -7 -25 -2 -25 9 0 25 39 18 46 -3 2 -10 -7 -16
-21z"/>
</g>
</svg>
