<?xml version="1.0" standalone="no"?>
<!DOCTYPE svg PUBLIC "-//W3C//DTD SVG 20010904//EN"
 "http://www.w3.org/TR/2001/REC-SVG-20010904/DTD/svg10.dtd">
<svg version="1.0" xmlns="http://www.w3.org/2000/svg"
 width="451.000000pt" height="553.000000pt" viewBox="0 0 451.000000 553.000000"
 preserveAspectRatio="xMidYMid meet">

<g transform="translate(0.000000,553.000000) scale(0.100000,-0.100000)"
fill="#000000" stroke="none">
<path d="M3078 4881 c-51 -32 -71 -58 -89 -111 -6 -19 -24 -49 -40 -65 -16
-17 -35 -48 -42 -70 -11 -32 -20 -41 -48 -48 -45 -12 -77 -43 -85 -84 -6 -34
-21 -42 -42 -21 -18 18 -45 -10 -37 -41 4 -20 3 -22 -5 -11 -7 11 -10 12 -10
2 0 -7 -13 -25 -30 -39 -20 -17 -30 -34 -30 -53 0 -16 -7 -33 -16 -38 -13 -7
-13 -10 -2 -20 10 -8 24 -4 58 19 27 18 52 28 64 25 11 -3 27 -1 37 5 14 7 29
4 56 -10 79 -40 114 -108 112 -220 l-1 -66 -12 40 c-11 36 -12 26 -13 -100 0
-77 -6 -178 -12 -224 -14 -95 -10 -113 10 -46 7 25 16 45 20 45 4 0 12 -39 19
-87 7 -49 25 -167 41 -263 16 -96 29 -179 29 -183 0 -5 -28 33 -61 84 -34 52
-90 123 -124 159 -92 96 -121 164 -85 200 11 11 20 33 20 49 0 31 14 41 58 42
l27 0 -24 10 -24 10 34 36 34 37 -50 -39 c-68 -54 -86 -76 -81 -102 3 -20 -19
-53 -28 -42 -1 2 -22 43 -45 92 -48 99 -120 180 -195 216 -60 30 -149 42 -181
25 -20 -10 -23 -10 -18 3 3 8 20 21 37 29 17 7 24 13 15 14 -27 0 -69 -39 -69
-66 0 -16 -6 -24 -16 -24 -9 0 -82 -31 -162 -70 -80 -38 -148 -70 -153 -70 -4
0 -13 16 -19 35 -16 49 -53 66 -148 67 -64 1 -88 -3 -142 -26 -36 -16 -81 -31
-100 -33 -38 -6 -70 -28 -70 -49 0 -7 -27 -34 -60 -59 -33 -25 -60 -49 -60
-51 0 -3 29 17 65 45 35 28 70 51 78 51 16 0 57 -28 57 -40 0 -5 -28 -28 -62
-52 -35 -23 -86 -65 -114 -93 l-51 -51 -36 16 -36 16 46 55 47 54 -43 -40
c-65 -61 -67 -69 -25 -94 20 -12 34 -25 30 -28 -3 -3 -14 1 -24 10 -10 10 -32
17 -48 16 l-29 -1 31 -9 c33 -9 61 -35 50 -46 -3 -3 -14 1 -23 10 -10 8 -30
20 -44 25 -25 10 -29 7 -76 -66 -54 -82 -113 -194 -113 -213 0 -6 -10 -21 -23
-33 -18 -17 -27 -44 -41 -123 -10 -56 -16 -110 -13 -120 3 -12 5 -8 6 10 0 15
8 57 17 92 14 57 18 63 34 55 10 -6 30 -10 44 -10 23 0 24 -2 15 -32 -14 -48
-39 -216 -39 -265 0 -24 -3 -43 -8 -43 -20 0 -53 34 -60 63 -9 31 -9 29 -17
-27 l-8 -59 53 -49 c29 -26 58 -48 65 -48 7 0 29 -29 50 -65 49 -84 168 -240
256 -337 90 -99 283 -255 472 -381 42 -28 174 -94 257 -128 26 -11 64 -41 91
-70 35 -39 54 -52 80 -54 19 -2 64 -7 101 -11 l66 -7 15 -58 15 -59 -67 -44
c-102 -68 -140 -84 -224 -95 -100 -14 -127 -31 -127 -81 0 -44 41 -107 92
-138 58 -36 116 -105 146 -173 17 -37 35 -70 41 -73 15 -10 14 -8 -14 48 -14
27 -25 60 -25 72 0 40 -46 130 -76 150 -16 11 -46 27 -67 37 -41 18 -57 48
-57 102 0 33 0 34 58 40 92 10 205 41 269 74 l61 30 6 -29 c3 -17 15 -49 26
-72 11 -23 19 -42 17 -43 -1 -1 -29 -12 -62 -24 -79 -31 -129 -37 -146 -18
-13 13 -49 12 -49 -2 1 -15 29 -41 55 -51 24 -9 33 -7 64 14 51 35 151 63 162
45 5 -9 -1 -17 -20 -25 -39 -16 -71 -61 -71 -99 0 -103 81 -245 151 -266 35
-11 57 -34 44 -47 -12 -12 -93 -6 -110 8 -10 8 -39 15 -64 16 -25 1 -66 9 -91
17 -35 13 -41 13 -26 2 10 -8 44 -19 75 -25 31 -7 63 -16 71 -21 38 -23 66
-29 107 -23 43 6 43 6 43 -25 0 -17 -12 -60 -27 -96 -24 -58 -25 -70 -15 -99
10 -27 9 -40 -2 -67 -9 -22 -15 -85 -17 -173 l-4 -139 26 -19 c42 -32 200 -58
224 -38 9 7 21 7 39 0 38 -14 72 -13 106 5 41 21 48 57 21 105 -11 21 -21 47
-21 59 0 12 -16 54 -36 94 -48 94 -55 121 -42 158 8 22 7 34 -1 42 -18 18 -13
87 13 167 13 41 34 116 46 165 14 52 32 100 45 115 23 25 32 54 42 125 3 22
21 64 40 93 18 29 40 77 48 107 39 153 46 167 95 188 62 27 157 102 189 148
17 25 34 38 49 39 24 0 112 67 112 85 0 5 -5 2 -11 -7 -5 -10 -16 -18 -24 -18
-8 0 -20 -9 -28 -21 -30 -42 -189 -27 -205 19 -5 17 13 15 28 -3 7 -8 19 -15
28 -15 12 0 11 5 -6 23 -20 22 -29 47 -17 47 4 0 18 -6 33 -14 15 -8 50 -17
77 -20 28 -3 41 -3 30 0 -105 28 -144 67 -57 59 26 -3 55 -8 64 -11 10 -3 26
-1 35 5 16 9 14 10 -9 11 -56 0 -42 53 17 64 20 4 39 14 42 22 8 22 40 17 47
-8 11 -42 6 -57 -26 -87 -18 -17 -28 -31 -22 -31 5 0 23 13 39 30 25 26 27 34
22 74 l-7 46 48 24 c68 36 50 32 -62 -14 -55 -22 -101 -39 -103 -36 -7 6 71
49 160 87 44 18 74 35 69 37 -6 2 -38 -11 -71 -27 -33 -17 -64 -31 -69 -31 -5
0 -27 25 -50 56 l-42 57 0 111 c0 130 7 145 68 153 49 7 59 17 76 75 12 38 17
43 66 60 56 19 80 34 80 51 0 5 -8 3 -17 -5 -15 -12 -94 -48 -107 -48 -2 0 -6
35 -9 79 -3 43 -10 88 -16 100 -7 11 -40 35 -74 52 -34 17 -63 33 -65 34 -6 5
-31 119 -32 141 0 16 11 25 45 38 25 10 51 27 59 38 13 18 12 26 -11 74 l-27
53 18 72 c26 107 22 348 -5 365 -5 3 -9 12 -9 21 0 8 -33 51 -74 94 -90 97
-106 140 -69 183 12 15 23 35 23 45 0 11 10 21 23 25 18 5 19 8 8 15 -12 8 -9
11 12 16 24 7 26 9 11 19 -25 19 -13 49 24 58 18 5 30 13 27 18 -3 5 1 7 9 4
26 -10 58 53 53 103 -4 35 -1 44 14 48 31 10 76 52 89 85 8 18 20 30 31 30 35
0 56 34 63 103 9 77 -7 120 -53 152 -31 20 -23 40 12 29 31 -10 -2 43 -36 57
-17 7 -58 41 -92 74 -66 67 -123 99 -203 115 -51 9 -108 5 -117 -10 -3 -4 -22
-2 -42 6 -61 21 -104 17 -155 -15z m99 3 c-3 -3 -12 -4 -19 -1 -8 3 -5 6 6 6
11 1 17 -2 13 -5z m302 -87 c-2 -2 -17 12 -33 32 l-30 36 34 -32 c19 -18 32
-34 29 -36z m-136 40 c18 -8 39 -22 47 -33 13 -15 10 -15 -15 3 -17 12 -46 26
-65 31 -19 6 -27 11 -17 11 10 1 32 -5 50 -12z m144 -79 c-3 -8 -6 -5 -6 6 -1
11 2 17 5 13 3 -3 4 -12 1 -19z m-166 -9 c138 -19 253 -83 247 -138 -2 -20
-10 -27 -33 -32 l-30 -6 36 -7 c22 -5 45 -4 57 3 17 9 21 7 26 -14 8 -32 -10
-69 -30 -61 -9 4 -12 2 -8 -5 4 -8 -1 -9 -17 -4 l-24 8 20 -24 c30 -35 47 -47
78 -54 31 -8 35 -30 12 -75 -14 -26 -50 -60 -66 -60 -3 0 -4 22 -1 49 6 66 0
87 -48 158 -65 97 -245 227 -358 258 l-47 13 51 1 c28 1 89 -4 135 -10z m230
-52 c-13 -13 -15 1 -4 30 7 17 8 17 11 -1 2 -10 -1 -23 -7 -29z m129 9 c0 -2
-15 -6 -34 -8 -19 -2 -32 0 -30 4 5 8 64 12 64 4z m-551 -89 c-2 -1 -11 -8
-21 -15 -12 -10 -18 -10 -24 -1 -4 8 -3 9 4 5 7 -4 12 -2 12 3 0 6 8 11 17 11
9 0 14 -1 12 -3z m164 -26 c79 -27 218 -101 244 -130 13 -13 25 -38 29 -56 7
-41 -11 -110 -37 -136 -10 -10 -19 -27 -19 -37 0 -10 -7 -27 -15 -40 -22 -30
-99 -82 -124 -82 -18 0 -19 3 -9 25 8 19 8 31 -1 52 -8 18 -9 29 -1 37 5 5 10
33 10 61 0 76 10 84 62 57 24 -12 37 -22 29 -22 -11 0 -10 -5 4 -20 10 -11 21
-20 25 -20 11 0 3 49 -11 67 -11 13 -11 15 6 12 11 -2 25 -15 32 -29 13 -25
13 -25 13 10 0 48 -7 54 -68 68 -64 14 -92 2 -92 -41 0 -25 -3 -27 -27 -21
l-28 6 23 -16 c17 -13 22 -27 22 -62 0 -37 -3 -44 -20 -44 -12 0 -17 5 -14 14
4 10 -1 12 -19 9 -29 -6 -59 21 -50 44 4 11 3 14 -6 9 -19 -12 -44 13 -30 30
8 10 8 14 1 14 -6 0 -15 -6 -19 -14 -5 -8 -27 -15 -53 -16 -63 -4 -70 -2 -70
16 0 8 -4 12 -10 9 -16 -10 -11 -61 8 -78 9 -8 34 -18 55 -22 30 -6 37 -11 37
-31 0 -28 70 -84 104 -84 12 0 27 -9 33 -19 7 -11 23 -21 35 -23 19 -3 15 -8
-29 -31 -62 -32 -95 -34 -120 -8 -10 10 -36 22 -59 25 -61 11 -100 39 -129 95
-28 57 -31 100 -10 160 11 33 12 41 1 41 -46 0 -69 118 -31 160 20 22 57 26
73 8 5 -7 13 -29 17 -48 l8 -35 16 55 c29 95 97 121 214 81z m457 -47 c0 -8
-4 -14 -10 -14 -5 0 -9 3 -8 8 1 4 -6 23 -15 42 l-18 35 25 -28 c15 -15 26
-35 26 -43z m-887 -28 c-10 -13 -20 -22 -22 -20 -4 4 29 44 36 44 2 0 -4 -11
-14 -24z m47 -1 c-7 -8 -16 -30 -20 -48 l-8 -32 -1 29 c-1 16 6 38 16 48 19
22 31 24 13 3z m835 -15 c8 -13 -14 -52 -26 -45 -5 4 -9 2 -9 -4 0 -6 -8 -7
-17 -4 -15 6 -14 8 5 21 12 8 22 21 22 28 0 16 16 19 25 4z m-65 -60 c12 -8
10 -10 -10 -9 -14 0 -34 4 -45 9 -17 7 -16 9 10 9 17 0 37 -4 45 -9z m46 -45
c-11 -8 -27 -15 -35 -15 -9 1 -2 7 14 15 39 18 44 18 21 0z m-942 -21 c3 -8 2
-12 -4 -9 -6 3 -10 10 -10 16 0 14 7 11 14 -7z m116 -18 c0 -2 -8 -10 -17 -17
-16 -13 -17 -12 -4 4 13 16 21 21 21 13z m360 -164 c0 -9 -7 -8 -25 5 -32 23
-32 34 0 20 14 -7 25 -18 25 -25z m267 16 c-3 -8 -6 -5 -6 6 -1 11 2 17 5 13
3 -3 4 -12 1 -19z m13 -36 c0 -10 -6 -27 -14 -38 -13 -17 -13 -15 -3 19 13 41
17 46 17 19z m-541 -142 c0 -29 -2 -31 -9 -15 -5 11 -9 34 -9 50 -1 23 2 26 9
15 5 -8 9 -31 9 -50z m-9 -129 c11 -52 18 -96 16 -99 -12 -11 -39 81 -42 143
-5 85 -1 78 26 -44z m134 74 c30 9 69 15 86 13 l31 -3 -70 -60 c-72 -62 -86
-81 -50 -70 20 7 129 -31 129 -44 0 -32 -65 -40 -126 -15 -77 32 -135 94 -88
94 15 0 15 2 0 25 -9 13 -16 39 -16 56 l0 32 24 -22 c23 -22 25 -22 80 -6z
m-807 -23 c0 -15 -1 -19 -4 -9 -4 16 -16 22 -37 18 -5 -1 -4 5 3 13 18 21 36
10 38 -22z m83 29 l25 -7 -27 -6 c-15 -3 -25 -2 -23 3 3 4 -3 10 -12 12 -12 3
-13 5 -3 5 8 0 26 -3 40 -7z m-225 -97 c-33 -30 -78 -64 -99 -75 -36 -20 -35
-17 23 37 55 51 114 93 131 93 3 0 -22 -25 -55 -55z m1073 43 c16 -18 27 -97
15 -97 -6 0 -32 12 -57 26 l-47 26 27 29 c30 32 46 36 62 16z m-958 -11 c0 -3
-4 -8 -10 -11 -5 -3 -10 -1 -10 4 0 6 5 11 10 11 6 0 10 -2 10 -4z m1052 -61
c9 -34 32 -74 70 -122 32 -39 62 -75 68 -78 5 -3 10 -15 10 -25 0 -10 7 -23
15 -27 20 -11 35 -97 35 -195 0 -112 -25 -201 -43 -155 -3 6 -6 -1 -6 -17 -1
-35 18 -104 36 -131 15 -23 17 -61 3 -70 -6 -4 -7 5 -4 22 5 23 0 35 -25 59
-45 44 -159 78 -240 72 -63 -4 -80 5 -35 22 38 15 75 12 145 -10 35 -10 65
-18 67 -16 9 9 -128 46 -172 46 -47 1 -49 2 -32 15 11 8 42 21 70 29 28 8 60
22 71 30 15 11 4 10 -49 -4 -63 -18 -67 -18 -54 -2 37 43 148 212 140 212 -5
0 -41 -42 -80 -92 -39 -51 -88 -115 -109 -142 -21 -27 -48 -68 -60 -90 -14
-27 -23 -36 -26 -26 -2 8 -17 96 -32 195 -15 99 -41 245 -56 324 -16 79 -28
146 -26 148 2 2 32 -11 66 -28 52 -26 71 -31 113 -27 67 7 112 49 113 107 0
50 10 41 27 -24z m-1092 41 c0 -8 -15 -25 -32 -38 l-32 -23 29 38 c34 42 35
43 35 23z m82 -8 c-7 -7 -12 -8 -12 -2 0 14 12 26 19 19 2 -3 -1 -11 -7 -17z
m-542 -16 l25 -16 -56 -8 c-31 -4 -80 -16 -110 -27 l-54 -21 -23 24 -24 23 44
18 c92 37 150 39 198 7z m75 3 c27 -26 33 -65 11 -65 -7 0 -19 14 -26 30 -7
17 -22 37 -34 45 l-20 15 22 0 c13 0 34 -11 47 -25z m1155 -160 c11 -33 22
-80 25 -105 l6 -45 -41 75 c-53 98 -70 149 -70 213 l0 52 31 -65 c17 -36 39
-92 49 -125z m-489 155 c45 -23 89 -80 126 -160 78 -169 115 -238 140 -265 42
-44 126 -159 240 -330 72 -107 112 -158 141 -178 22 -14 99 -49 170 -76 159
-60 232 -96 254 -125 14 -16 17 -40 17 -111 0 -102 -15 -158 -43 -163 -17 -4
-18 1 -12 70 4 43 3 83 -3 98 -5 14 -10 23 -11 20 0 -3 -2 -42 -3 -87 -2 -63
-6 -86 -21 -102 -33 -37 -39 -26 -31 64 4 54 3 85 -3 85 -15 0 -22 -26 -22
-78 0 -77 -14 -81 -38 -10 l-20 63 -7 -40 c-3 -22 -7 -47 -9 -55 -1 -8 -8 11
-15 43 -9 42 -23 70 -52 103 -28 32 -39 54 -39 77 0 43 -32 93 -73 114 -103
54 -119 67 -179 145 -101 133 -333 353 -505 478 -26 19 -80 58 -119 85 l-71
50 13 65 c35 175 66 240 114 240 11 0 39 -9 61 -20z m-441 -3 c0 -10 -101 -77
-116 -77 -11 0 9 17 46 40 67 40 70 42 70 37z m220 -22 c0 -8 -2 -15 -4 -15
-2 0 -6 7 -10 15 -3 8 -1 15 4 15 6 0 10 -7 10 -15z m-10 -47 c31 -49 33 -59
31 -123 -1 -38 -4 -71 -6 -73 -2 -2 -36 16 -77 40 -40 24 -101 57 -135 73
l-63 29 103 51 c56 28 105 52 108 53 3 1 21 -22 39 -50z m-745 22 c18 -20 18
-20 -21 -4 -50 21 -53 24 -22 24 14 0 33 -9 43 -20z m-4 -40 c17 -17 27 -35
23 -41 -4 -8 -12 -3 -22 13 -8 14 -27 32 -41 41 -21 13 -22 17 -8 17 10 0 32
-13 48 -30z m184 -89 c-6 -5 -97 29 -110 40 -5 5 18 -1 52 -13 34 -13 60 -24
58 -27z m1305 -146 c0 -5 4 -4 9 4 7 10 9 8 9 -10 -1 -13 9 -70 21 -127 13
-57 20 -106 17 -109 -3 -4 -6 0 -6 8 0 8 -16 48 -36 89 -53 112 -76 177 -98
285 -4 19 10 1 39 -50 24 -44 45 -84 45 -90z m-1198 109 c131 -56 366 -185
558 -307 112 -71 313 -232 367 -294 100 -115 104 -127 11 -31 -98 101 -298
265 -408 334 -113 71 -340 195 -485 265 -154 75 -172 88 -43 33z m185 -285
c183 -168 287 -283 402 -442 56 -79 86 -127 78 -127 -2 0 -19 21 -37 48 -19
26 -37 49 -40 52 -3 3 -51 64 -107 136 -110 141 -217 248 -453 455 -83 72
-150 133 -150 135 0 10 174 -136 307 -257z m-814 131 l26 -21 -53 -79 c-29
-43 -69 -109 -87 -145 -34 -64 -53 -77 -77 -53 -19 19 -14 59 16 123 37 76
120 195 136 195 8 0 25 -9 39 -20z m177 -45 c26 -19 51 -35 55 -35 4 0 40 -24
80 -52 82 -59 234 -162 398 -269 59 -38 107 -73 107 -76 0 -3 -10 2 -22 11
-13 8 -60 39 -106 68 -45 29 -172 113 -283 186 -110 72 -202 132 -205 132 -11
0 -84 53 -84 61 0 15 10 10 60 -26z m1665 -91 c26 -53 58 -167 68 -244 l6 -45
-13 35 c-7 19 -32 72 -54 117 -36 71 -73 197 -72 243 1 15 20 -15 65 -106z
m-1674 -51 c13 -16 12 -17 -3 -4 -10 7 -18 15 -18 17 0 8 8 3 21 -13z m30 -40
c13 -16 12 -17 -3 -4 -17 13 -22 21 -14 21 2 0 10 -8 17 -17z m1697 -199 c-2
-12 -14 -1 -39 37 -26 40 -38 70 -43 110 l-6 54 46 -92 c25 -50 44 -99 42
-109z m-1663 156 c10 -11 16 -20 13 -20 -3 0 -13 9 -23 20 -10 11 -16 20 -13
20 3 0 13 -9 23 -20z m-410 -66 c17 -4 23 -10 17 -16 -6 -6 -17 -6 -30 1 -10
6 -21 8 -24 6 -2 -2 -5 10 -5 28 -2 28 -1 29 7 10 5 -12 21 -25 35 -29z m182
-45 c43 -41 119 -110 168 -153 50 -43 99 -86 110 -95 85 -75 335 -260 439
-326 154 -98 174 -112 116 -84 -114 55 -402 258 -570 400 -25 21 -70 60 -100
85 -93 80 -259 242 -253 248 4 3 8 5 9 4 2 -2 38 -37 81 -79z m268 61 c10 -11
16 -20 13 -20 -3 0 -13 9 -23 20 -10 11 -16 20 -13 20 3 0 13 -9 23 -20z
m-505 -11 c0 -6 -4 -7 -10 -4 -5 3 -10 11 -10 16 0 6 5 7 10 4 6 -3 10 -11 10
-16z m2413 -21 c35 -18 49 -54 42 -108 -4 -28 -2 -81 5 -121 7 -38 10 -72 9
-73 -2 -2 -46 13 -96 32 -90 34 -93 37 -93 66 0 17 7 53 15 80 8 27 15 71 15
98 l0 50 43 -7 c23 -4 50 -11 60 -17z m-1868 -18 c10 -11 16 -20 13 -20 -3 0
-13 9 -23 20 -10 11 -16 20 -13 20 3 0 13 -9 23 -20z m1639 -71 l-8 -64 -8 48
c-6 31 -5 54 3 68 17 32 21 16 13 -52z m-1516 -71 c116 -130 217 -234 425
-437 82 -80 143 -149 139 -153 -5 -5 -129 117 -279 274 -246 256 -402 428
-390 428 2 0 49 -51 105 -112z m-413 -98 c100 -142 354 -415 472 -505 96 -75
210 -160 267 -200 88 -61 103 -74 86 -74 -13 0 -164 108 -347 248 -71 55 -290
272 -365 361 -46 56 -136 182 -162 230 -16 27 9 -3 49 -60z m1737 -7 c19 -17
25 -68 9 -77 -5 -3 -12 6 -16 22 -3 15 -16 37 -27 50 -20 20 -20 22 -3 22 10
0 27 -7 37 -17z m131 -14 c57 -15 79 -42 75 -92 -2 -34 -7 -43 -24 -45 -11 -2
-27 4 -34 13 -12 14 -10 14 15 5 35 -13 42 -7 13 12 -35 23 -95 40 -116 34
-15 -5 -18 0 -21 36 -1 23 -5 46 -8 51 -6 9 25 5 100 -14z m-188 -5 c9 -9 15
-28 13 -43 -2 -21 -18 -34 -88 -71 -47 -25 -105 -59 -130 -77 l-46 -31 -17 29
c-9 16 -27 33 -39 38 -21 8 -17 12 47 53 77 50 140 84 194 103 47 18 47 18 66
-1z m-515 -90 c0 -2 -13 2 -30 11 -16 9 -30 18 -30 21 0 2 14 -2 30 -11 17 -9
30 -18 30 -21z m867 -22 c13 -66 -9 -122 -49 -122 -20 0 -20 1 -4 19 25 28 37
82 27 118 -7 25 -6 31 5 26 7 -3 17 -21 21 -41z m-2271 28 c38 15 46 12 42
-12 -5 -40 -96 -33 -112 8 -4 10 1 11 19 4 16 -6 35 -6 51 0z m2066 -24 c24
-16 34 -32 39 -61 5 -27 16 -46 39 -65 32 -26 33 -28 26 -86 -14 -116 -15
-118 -139 -180 -239 -119 -385 -221 -409 -283 -15 -41 6 -48 52 -16 23 16 44
33 47 38 8 14 -17 -1 -44 -26 -13 -11 -23 -16 -23 -10 0 21 124 123 210 175
119 71 489 248 495 237 3 -5 -37 -30 -89 -56 -93 -46 -105 -62 -46 -63 23 0
23 -1 8 -16 -14 -15 -21 -15 -47 -4 -17 7 -31 16 -31 21 0 5 -11 3 -25 -3 -14
-6 -25 -15 -25 -20 0 -5 -4 -6 -10 -3 -6 4 -7 -1 -3 -10 3 -10 -12 -51 -37
-101 -33 -66 -50 -88 -76 -100 -20 -9 -37 -27 -43 -45 -21 -62 -229 -235 -294
-246 -22 -3 -47 -14 -57 -25 -24 -27 -105 -55 -179 -64 -57 -6 -64 -5 -89 18
-15 14 -39 28 -54 32 -61 14 -92 138 -48 194 12 15 20 38 18 56 -2 41 71 197
107 228 15 12 33 35 39 50 19 44 215 259 247 270 16 5 29 14 29 19 0 12 101
79 191 126 93 49 167 56 221 19z m-598 -12 c26 -15 45 -28 43 -30 -4 -5 -97
45 -97 52 0 7 7 4 54 -22z m766 -23 c0 -17 -10 -42 -24 -58 l-25 -28 22 57
c12 32 23 58 25 58 1 0 2 -13 2 -29z m-2203 -17 c-3 -4 -14 -3 -24 0 -15 6
-15 8 -3 16 16 10 39 -4 27 -16z m1571 -20 c15 -10 22 -25 22 -47 l0 -32 -19
32 c-11 17 -29 34 -40 38 -12 3 -19 11 -16 16 9 13 28 11 53 -7z m592 7 c0 -5
-9 -19 -20 -32 -20 -24 -20 -24 -35 -5 -21 28 -19 34 13 39 15 2 30 5 35 6 4
0 7 -3 7 -8z m-637 -59 c36 -32 28 -45 -150 -239 -40 -44 -60 -51 -93 -33 -48
26 -44 43 36 136 94 111 152 164 173 157 9 -4 24 -13 34 -21z m714 -27 c12
-12 14 -27 8 -63 -9 -63 -19 -78 -56 -91 -41 -14 -40 -15 -30 12 5 13 12 50
16 83 4 32 9 62 12 67 7 12 34 8 50 -8z m161 -166 l44 -22 -6 -81 c-4 -44 -9
-101 -12 -126 -4 -39 -1 -49 23 -75 16 -16 38 -44 50 -61 21 -29 21 -30 3 -42
-22 -13 -35 0 -26 24 3 8 2 13 -3 10 -5 -3 -14 7 -20 23 -14 32 -91 109 -91
91 0 -7 19 -30 42 -51 l42 -38 -12 -73 c-14 -82 -20 -91 -53 -86 -29 4 -38 48
-16 82 14 21 14 22 -18 18 -25 -3 -36 1 -49 19 -23 34 -21 125 4 167 24 39 24
42 4 42 -13 0 -15 8 -9 43 11 73 37 157 48 157 6 0 31 -10 55 -21z m-1092
-109 c9 0 12 -4 9 -10 -11 -17 -60 -11 -83 10 -42 40 -14 61 31 24 16 -13 35
-24 43 -24z m872 -36 c7 -4 -52 -111 -91 -167 -33 -47 -44 -56 -61 -51 -47 14
-47 26 -1 99 25 39 52 89 61 112 l16 42 37 -17 c20 -9 37 -17 39 -18z m-944 5
l35 -21 -23 -46 c-13 -26 -31 -69 -41 -96 -23 -59 -52 -77 -90 -52 -14 9 -25
21 -25 27 0 12 100 209 105 209 2 0 20 -9 39 -21z m981 -109 c-9 -17 -16 -50
-16 -73 0 -23 -2 -63 -5 -90 -5 -36 -1 -56 15 -87 12 -22 21 -44 21 -49 0 -5
-16 -19 -35 -32 -19 -13 -35 -30 -35 -37 0 -21 29 -26 50 -7 17 16 19 16 29
-4 14 -25 45 -43 89 -50 l32 -6 -25 -37 c-14 -20 -60 -60 -102 -88 l-78 -51
-3 32 c-2 18 -9 41 -16 53 -7 12 -11 39 -10 61 1 22 3 77 4 123 1 77 2 82 23
83 20 0 19 2 -5 11 -20 7 -30 20 -38 46 -14 52 -14 52 21 45 l30 -6 -25 38
c-14 21 -26 44 -26 51 0 18 90 186 104 196 19 13 19 -87 1 -122z m-225 -132
c22 -16 27 -24 18 -30 -18 -11 -25 -10 -42 8 -15 15 -22 44 -11 44 3 0 19 -10
35 -22z m106 -133 c9 -72 14 -144 10 -160 l-7 -29 -20 30 c-26 40 -23 11 6
-61 40 -97 40 -109 -1 -225 -20 -58 -46 -116 -58 -129 -17 -20 -18 -23 -3 -18
24 9 22 2 -15 -50 -24 -33 -33 -56 -33 -88 -1 -24 -6 -49 -12 -57 -6 -7 -13
-24 -15 -38 -5 -37 -65 -54 -140 -41 -104 18 -217 87 -231 142 -4 16 -1 15 28
-7 35 -26 134 -68 142 -60 3 2 -15 17 -39 31 -63 40 -98 75 -119 120 -16 35
-19 37 -19 15 l-1 -25 -14 26 c-12 22 -35 239 -35 334 0 66 19 3 34 -112 17
-136 32 -175 76 -198 16 -8 44 -33 61 -55 18 -22 34 -38 36 -36 9 9 -32 74
-78 122 -26 29 -50 62 -53 75 -19 81 -46 215 -46 224 0 15 43 35 73 35 13 0
29 6 36 13 10 10 11 -9 6 -98 l-7 -111 36 -27 c42 -32 45 -28 14 16 -20 27
-24 48 -26 136 -3 92 -2 107 14 118 29 21 34 16 34 -37 0 -55 24 -114 43 -107
21 6 19 56 -2 91 -34 55 -28 86 27 126 26 19 80 67 121 107 46 45 83 73 100
75 19 2 28 11 35 33 5 17 11 37 14 45 6 19 5 26 28 -145z m-948 105 c12 0 22
-4 22 -8 0 -16 -25 -32 -50 -32 -32 0 -50 17 -50 46 0 22 1 22 28 8 15 -7 37
-14 50 -14z m802 -21 l24 -21 -80 -76 c-97 -93 -217 -179 -223 -160 -2 7 -10
25 -17 40 -14 27 -13 28 23 47 21 11 83 58 138 105 55 47 102 85 105 85 3 0
16 -9 30 -20z m390 -17 c0 -5 -7 -17 -15 -28 -14 -18 -14 -18 -15 9 0 17 5 27
15 27 8 0 15 -4 15 -8z m-1202 -96 c9 -49 18 -67 47 -94 47 -44 44 -87 -9
-106 -29 -10 -91 59 -110 124 -16 52 -22 141 -10 152 3 3 20 1 38 -4 31 -10
34 -15 44 -72z m1139 17 c-3 -10 -5 -2 -5 17 0 19 2 27 5 18 2 -10 2 -26 0
-35z m-677 -120 c0 -22 -2 -25 -10 -13 -13 20 -13 40 0 40 6 0 10 -12 10 -27z
m48 -57 c-2 -11 -9 -21 -15 -24 -9 -2 -13 9 -13 40 1 40 2 42 16 23 8 -11 13
-29 12 -39z m-68 -40 c-20 -20 -149 -46 -233 -46 l-88 0 22 29 c18 24 29 29
84 34 36 3 90 17 122 29 l58 24 22 -31 c11 -16 17 -34 13 -39z m-324 -1 c-9
-14 -21 -25 -26 -25 -6 0 -1 9 10 20 11 11 20 28 21 38 0 10 2 12 6 4 3 -7 -2
-24 -11 -37z m278 -491 c27 -33 30 -45 38 -146 5 -61 7 -112 5 -114 -7 -7
-111 26 -124 39 -8 7 -20 54 -28 102 -16 98 -9 126 38 145 34 13 40 11 71 -26z
m208 -163 c26 -6 67 -11 92 -11 25 0 46 -4 46 -8 0 -5 -16 -87 -35 -182 -19
-95 -35 -175 -35 -178 0 -2 -8 2 -17 9 -13 11 -12 5 5 -22 14 -23 22 -53 22
-80 0 -24 11 -69 24 -99 13 -30 34 -80 46 -110 12 -30 32 -77 44 -104 l20 -48
-27 -24 c-44 -38 -111 -31 -128 13 -15 40 4 63 53 63 23 0 38 3 35 7 -4 3 -25
6 -47 5 -38 -2 -40 -1 -34 23 4 17 2 25 -7 25 -8 0 -15 -12 -16 -27 -11 -125
-14 -134 -42 -131 -23 3 -27 8 -32 53 l-5 50 -5 -50 c-3 -42 -7 -50 -24 -50
-17 0 -21 9 -26 50 -5 41 -6 44 -8 15 -2 -48 -14 -64 -41 -55 -20 6 -21 12
-16 47 4 26 3 37 -4 33 -5 -3 -10 -19 -10 -36 0 -33 -14 -38 -29 -11 -7 13 -2
59 15 153 34 183 40 204 75 244 26 29 28 35 13 35 -9 0 -26 -8 -36 -17 -14
-13 -21 -14 -31 -4 -9 9 -6 22 16 60 21 38 28 68 33 128 8 112 43 266 57 255
7 -5 33 -14 59 -21z"/>
<path d="M3214 4557 c33 -21 56 -46 56 -61 0 -11 -10 -10 -51 5 -42 16 -50 17
-46 5 4 -9 -1 -16 -10 -18 -12 -2 -11 -7 8 -23 19 -17 22 -18 16 -2 -8 21 -4
21 33 2 16 -8 36 -12 44 -9 9 3 16 1 16 -6 0 -6 -5 -8 -11 -4 -7 4 -10 0 -7
-10 1 -10 7 -16 12 -16 5 1 12 -4 17 -11 5 -9 11 -5 20 14 7 15 20 27 31 27
24 0 23 4 -12 56 -18 26 -41 46 -55 49 -14 3 -37 7 -52 10 -25 4 -26 4 -9 -8z"/>
<path d="M2986 4504 c-3 -8 -2 -13 3 -9 5 3 12 -1 14 -7 3 -7 6 -3 6 10 1 25
-14 30 -23 6z"/>
<path d="M2971 4469 c-1 -8 6 -24 15 -35 15 -19 15 -19 6 1 -5 11 -12 27 -15
35 -5 13 -6 13 -6 -1z"/>
<path d="M3011 4454 c0 -11 3 -14 6 -6 3 7 2 16 -1 19 -3 4 -6 -2 -5 -13z"/>
<path d="M3171 4133 c13 -16 25 -29 26 -31 0 -2 10 2 21 9 19 12 19 13 -14 31
-49 26 -61 22 -33 -9z"/>
<path d="M2457 3664 c-13 -13 -7 -41 13 -64 23 -27 23 -27 7 28 -7 23 -16 40
-20 36z"/>
<path d="M2985 2284 c-127 -72 -219 -131 -239 -153 -29 -32 -12 -25 45 18 29
22 103 69 165 106 96 57 126 76 112 75 -2 0 -39 -21 -83 -46z"/>
<path d="M2591 1344 c0 -11 3 -14 6 -6 3 7 2 16 -1 19 -3 4 -6 -2 -5 -13z"/>
<path d="M2565 4228 c-19 -20 -41 -51 -50 -67 -8 -17 -21 -31 -27 -31 -6 0 -8
-3 -5 -7 10 -9 43 24 58 58 7 18 17 28 25 25 7 -3 18 2 25 10 18 22 49 37 94
45 34 6 30 7 -24 6 -59 -2 -65 -4 -96 -39z"/>
<path d="M2409 4088 c-13 -18 -28 -36 -34 -40 -6 -5 -6 -8 0 -8 17 0 31 14 48
48 8 17 14 32 12 32 -2 0 -14 -15 -26 -32z"/>
<path d="M2460 4035 c0 -2 20 -13 45 -24 63 -28 111 -68 147 -125 39 -59 50
-44 14 18 -30 51 -75 92 -131 117 -38 18 -75 25 -75 14z"/>
<path d="M911 2904 c0 -11 3 -14 6 -6 3 7 2 16 -1 19 -3 4 -6 -2 -5 -13z"/>
<path d="M3660 2610 c-8 -5 -10 -10 -5 -10 6 0 17 5 25 10 8 5 11 10 5 10 -5
0 -17 -5 -25 -10z"/>
<path d="M4150 2256 c-95 -22 -324 -95 -318 -101 2 -2 41 8 88 22 110 32 288
73 320 73 44 0 7 -16 -89 -39 -105 -25 -314 -92 -307 -98 2 -2 39 5 82 16 92
23 273 56 359 66 l59 7 -41 39 c-23 21 -46 39 -50 38 -4 0 -51 -11 -103 -23z"/>
<path d="M3765 2131 c-22 -11 -33 -20 -25 -20 8 0 31 8 50 19 45 25 27 25 -25
1z"/>
<path d="M3780 2100 c-18 -12 -2 -12 25 0 13 6 15 9 5 9 -8 0 -22 -4 -30 -9z"/>
<path d="M3710 2070 c-8 -5 -10 -10 -5 -10 6 0 17 5 25 10 8 5 11 10 5 10 -5
0 -17 -5 -25 -10z"/>
</g>
</svg>
